<?xml version="1.0" encoding="utf-8"?>
<!-- Generator: Adobe Illustrator 24.3.0, SVG Export Plug-In . SVG Version: 6.00 Build 0)  -->
<svg version="1.1" id="Layer_1" xmlns="http://www.w3.org/2000/svg" xmlns:xlink="http://www.w3.org/1999/xlink" x="0px" y="0px"
	 viewBox="0 0 30 30" style="enable-background:new 0 0 30 30;" xml:space="preserve">
<path d="M0,22c0,0.2,0.1,0.5,0.2,0.7c0.1,0.2,0.5,0.2,0.7,0.2H12c0.2,0,0.5-0.1,0.7-0.2C13,22.4,13,22.2,13,22s-0.1-0.6-0.2-0.7
	c-0.1-0.2-0.2-0.4-0.6-0.4H1.1c-0.2,0-0.6,0.1-0.7,0.2C0.2,21.3,0,21.6,0,22z M3.2,18.3c0,0.2,0.1,0.5,0.4,0.7
	c0.2,0.2,0.5,0.2,0.7,0.2h11.1c0.2,0,0.5-0.1,0.7-0.2c0.2-0.1,0.2-0.5,0.2-0.7s-0.1-0.5-0.2-0.7c-0.1-0.2-0.5-0.2-0.7-0.2H4.1
	c-0.2,0-0.5,0.1-0.7,0.2C3.3,17.8,3.2,18.1,3.2,18.3z M4.4,15.6c0,0.1,0.1,0.1,0.2,0.1h1.7c0.1,0,0.2-0.1,0.2-0.1
	c0.2-0.6,0.7-1.2,1.2-1.7c0.6-0.5,1.2-0.7,1.9-0.7l0.7-0.1c0.1,0,0.2-0.1,0.2-0.2l0.1-0.6c0.1-1.3,0.7-2.4,1.7-3.2
	c0.9-0.8,2-1.2,3.3-1.2s2.4,0.5,3.3,1.3c0.9,0.8,1.5,1.9,1.7,3.2l0.1,0.7c0,0.1,0.1,0.2,0.2,0.2h1.9c1.1,0,2,0.4,2.7,1.2
	c0.7,0.8,1.2,1.7,1.2,2.7s-0.4,1.9-1.2,2.7c-0.7,0.7-1.7,1.2-2.7,1.2h-8.1c-0.1,0-0.2,0.1-0.2,0.2v1.5c0,0.1,0.1,0.2,0.2,0.2h8.1
	c1.1,0,2-0.2,3-0.8s1.7-1.2,2.1-2.1c0.5-0.9,0.8-1.9,0.8-3S28.5,15,28,14.2c0.8-0.7,1.4-1.8,1.8-3.1l0.2-0.8c0,0,0,0,0-0.1
	s0-0.1-0.1-0.2l-0.7-0.2c-0.5-0.1-0.9-0.4-1.4-0.7C27.4,8.7,27,8.4,26.8,8c-0.2-0.4-0.4-0.7-0.5-1.1c-0.1-0.4-0.1-0.7-0.1-1.1
	c0-0.2,0-0.6,0.1-1.1l0.1-0.7c0-0.1,0-0.2-0.1-0.2l-0.9-0.2c-0.5-0.1-1.1-0.2-1.4-0.2c-0.5,0-0.9,0-1.3,0.1
	c-0.4,0.1-0.9,0.2-1.4,0.5c-0.5,0.2-0.9,0.5-1.4,0.9c-0.5,0.4-0.8,0.9-1.2,1.4c-0.9-0.4-1.9-0.6-2.8-0.6c-1.7,0-3.2,0.5-4.5,1.5
	s-2.1,2.4-2.5,4C7.8,11.6,7,12,6.1,12.8c-0.7,0.7-1.3,1.7-1.7,2.6L4.4,15.6C4.4,15.5,4.4,15.5,4.4,15.6z M5.2,25.6
	c0,0.2,0.1,0.5,0.2,0.7c0.2,0.2,0.5,0.2,0.7,0.2h11.2c0.2,0,0.5-0.1,0.7-0.2s0.2-0.5,0.2-0.7s-0.1-0.5-0.2-0.7s-0.5-0.2-0.7-0.2H6.3
	c-0.2,0-0.5,0.1-0.7,0.2C5.3,25,5.2,25.4,5.2,25.6z M20.1,7.4c0.4-0.7,0.9-1.2,1.7-1.5c0.6-0.4,1.3-0.5,2-0.5c0.1,0,0.2,0,0.2,0v0.2
	c0,1.2,0.4,2.2,0.9,3.3s1.4,1.9,2.6,2.4c-0.2,0.5-0.5,0.9-0.9,1.3c-1.1-0.9-2.4-1.4-3.8-1.4h-0.4C22.1,9.8,21.4,8.5,20.1,7.4z"/>
</svg>
