<?xml version="1.0" encoding="utf-8"?>
<!-- Generator: Adobe Illustrator 24.3.0, SVG Export Plug-In . SVG Version: 6.00 Build 0)  -->
<svg version="1.1" id="Layer_1" xmlns="http://www.w3.org/2000/svg" xmlns:xlink="http://www.w3.org/1999/xlink" x="0px" y="0px"
	 viewBox="0 0 30 30" style="enable-background:new 0 0 30 30;" xml:space="preserve">
<path d="M2.3,20.9c0,0.2,0.1,0.4,0.2,0.6c0.1,0.2,0.4,0.2,0.6,0.2h9.4c0.2,0,0.4-0.1,0.6-0.2c0.2-0.2,0.2-0.4,0.2-0.6
	s-0.1-0.5-0.2-0.6C13,20.1,12.9,20,12.6,20H3.2c-0.2,0-0.5,0.1-0.6,0.2C2.5,20.3,2.3,20.6,2.3,20.9z M5,17.8c0,0.2,0.1,0.4,0.3,0.6
	c0.2,0.2,0.4,0.2,0.6,0.2h9.4c0.2,0,0.4-0.1,0.6-0.2s0.2-0.4,0.2-0.6s-0.1-0.4-0.2-0.6S15.5,17,15.3,17H5.8c-0.2,0-0.4,0.1-0.6,0.2
	C5.1,17.4,5,17.6,5,17.8z M6,15.5c0,0.1,0.1,0.1,0.2,0.1h1.4c0.1,0,0.2-0.1,0.2-0.1c0.2-0.5,0.6-1,1-1.4c0.5-0.4,1-0.6,1.6-0.6
	l0.6-0.1c0.1,0,0.2-0.1,0.2-0.2l0.1-0.5c0.1-1.1,0.6-2,1.4-2.7c0.8-0.7,1.7-1,2.8-1s2,0.4,2.8,1.1s1.3,1.6,1.4,2.7l0.1,0.6
	c0,0.1,0.1,0.2,0.2,0.2h1.6c0.9,0,1.7,0.3,2.3,1s1,1.4,1,2.3c0,0.9-0.3,1.6-1,2.3c-0.6,0.6-1.4,1-2.3,1h-6.9c-0.1,0-0.2,0.1-0.2,0.2
	v1.3c0,0.1,0.1,0.2,0.2,0.2h6.9c0.9,0,1.7-0.2,2.5-0.7s1.4-1,1.8-1.8s0.7-1.6,0.7-2.5c0-0.9-0.2-1.9-0.6-2.6
	c0.7-0.6,1.2-1.5,1.5-2.6l0.2-0.7c0,0,0,0,0-0.1s0-0.1-0.1-0.2L27,10.5c-0.4-0.1-0.8-0.3-1.2-0.6c-0.3-0.2-0.6-0.5-0.8-0.8
	c-0.2-0.3-0.3-0.6-0.4-0.9s-0.1-0.6-0.1-0.9c0-0.2,0-0.5,0.1-0.9l0.1-0.6c0-0.1,0-0.2-0.1-0.2l-0.8-0.2c-0.4-0.1-0.9-0.2-1.2-0.2
	c-0.4,0-0.8,0-1.1,0.1c-0.3,0.1-0.8,0.2-1.2,0.4c-0.4,0.2-0.8,0.4-1.2,0.8c-0.4,0.3-0.7,0.8-1,1.2c-0.8-0.3-1.6-0.5-2.4-0.5
	c-1.4,0-2.7,0.4-3.8,1.3c-1.1,0.9-1.8,2-2.1,3.4c-0.9,0.2-1.6,0.6-2.3,1.2c-0.6,0.6-1.1,1.4-1.4,2.2L6,15.5C6,15.4,6,15.4,6,15.5z
	 M6.7,24c0,0.2,0.1,0.4,0.2,0.6c0.2,0.2,0.4,0.2,0.6,0.2H17c0.2,0,0.4-0.1,0.6-0.2s0.2-0.4,0.2-0.6s-0.1-0.4-0.2-0.6
	s-0.4-0.2-0.6-0.2H7.6c-0.2,0-0.4,0.1-0.6,0.2S6.7,23.8,6.7,24z M19.3,8.6c0.3-0.6,0.8-1,1.4-1.3c0.5-0.3,1.1-0.4,1.7-0.4
	c0.1,0,0.2,0,0.2,0v0.2c0,1,0.3,1.9,0.8,2.8s1.2,1.6,2.2,2c-0.2,0.4-0.4,0.8-0.8,1.1c-0.9-0.8-2-1.2-3.2-1.2h-0.3
	C21,10.6,20.4,9.5,19.3,8.6z"/>
</svg>
