<?xml version="1.0" encoding="utf-8"?>
<!-- Generator: Adobe Illustrator 24.3.0, SVG Export Plug-In . SVG Version: 6.00 Build 0)  -->
<svg version="1.1" id="Layer_1" xmlns="http://www.w3.org/2000/svg" xmlns:xlink="http://www.w3.org/1999/xlink" x="0px" y="0px"
	 viewBox="0 0 30 30" style="enable-background:new 0 0 30 30;" xml:space="preserve">
<path d="M3.1,19.8c0-0.2,0.1-0.5,0.2-0.6s0.5-0.3,0.7-0.3h9c0.2,0,0.4,0.1,0.6,0.2s0.2,0.4,0.2,0.6s-0.1,0.4-0.2,0.6
	s-0.4,0.2-0.6,0.2H4c-0.2,0-0.5-0.1-0.6-0.2S3.1,20,3.1,19.8z M5.8,16.7c0-0.2,0.1-0.4,0.3-0.6c0.1-0.1,0.3-0.2,0.5-0.2h9
	c0.2,0,0.4,0.1,0.6,0.2s0.2,0.4,0.2,0.6s-0.1,0.4-0.2,0.6s-0.3,0.2-0.6,0.2h-9c-0.2,0-0.4-0.1-0.6-0.3S5.8,16.9,5.8,16.7z M6.4,14.4
	c0,0.1,0.1,0.1,0.2,0.1H8c0.1,0,0.2-0.1,0.2-0.1c0.2-0.5,0.6-1,1-1.4s1-0.6,1.6-0.6l0.5-0.1c0.1,0,0.2-0.1,0.2-0.2l0.1-0.5
	c0.1-1.1,0.6-2,1.4-2.7c0.8-0.7,1.8-1.1,2.9-1.1s2,0.4,2.8,1.1s1.3,1.6,1.4,2.7l0.1,0.6c0,0.1,0.1,0.2,0.2,0.2H22
	c0.9,0,1.7,0.3,2.3,1s1,1.4,1,2.3s-0.3,1.6-1,2.3c-0.6,0.6-1.4,1-2.3,1h-6.9c-0.1,0-0.2,0.1-0.2,0.2v1.3c0,0.1,0.1,0.2,0.2,0.2H22
	c0.7,0,1.3-0.1,1.9-0.4s1.1-0.6,1.6-1s0.8-1,1-1.6s0.4-1.2,0.4-1.9c0-0.9-0.2-1.7-0.7-2.5s-1-1.4-1.8-1.8c-0.8-0.4-1.6-0.7-2.5-0.7
	h-0.3c-0.3-1.3-1-2.4-2.1-3.3c-1.1-0.8-2.3-1.3-3.7-1.3S13.1,6.7,12,7.6s-1.8,2-2.1,3.4c-0.9,0.2-1.6,0.6-2.3,1.2s-1.1,1.4-1.4,2.2
	L6.4,14.4C6.4,14.3,6.4,14.3,6.4,14.4z M7.5,22.9c0-0.2,0.1-0.4,0.3-0.6s0.4-0.2,0.6-0.2h9c0.2,0,0.5,0.1,0.6,0.2
	c0.2,0.2,0.2,0.4,0.2,0.6s-0.1,0.4-0.2,0.6s-0.4,0.2-0.6,0.2h-9c-0.2,0-0.4-0.1-0.6-0.2C7.6,23.3,7.5,23.1,7.5,22.9z"/>
</svg>
