<?xml version="1.0" encoding="utf-8"?>
<!-- Generator: Adobe Illustrator 24.3.0, SVG Export Plug-In . SVG Version: 6.00 Build 0)  -->
<svg version="1.1" id="Layer_1" xmlns="http://www.w3.org/2000/svg" x="0px" y="0px" viewBox="0 0 30 30" style="enable-background:new 0 0 30 30;" xml:space="preserve">
<path d="M0,21.1c0-0.3,0.1-0.6,0.3-0.8C0.4,20.2,0.9,20,1.1,20h11.3c0.3,0,0.5,0.1,0.8,0.3c0.3,0.1,0.3,0.5,0.3,0.8
	s-0.1,0.5-0.3,0.8C13.1,22,12.7,22,12.5,22H1.1c-0.3,0-0.6-0.1-0.8-0.3S0,21.4,0,21.1z M3.4,17.2c0-0.3,0.1-0.5,0.4-0.8
	c0.1-0.1,0.4-0.3,0.6-0.3h11.3c0.3,0,0.5,0.1,0.8,0.3s0.3,0.5,0.3,0.8s-0.1,0.5-0.3,0.8s-0.4,0.3-0.8,0.3H4.4
	c-0.3,0-0.5-0.1-0.8-0.4C3.4,17.6,3.4,17.5,3.4,17.2z M4.2,14.3c0,0.1,0.1,0.1,0.3,0.1h1.8c0.1,0,0.3-0.1,0.3-0.1
	c0.3-0.6,0.8-1.3,1.3-1.8c0.5-0.5,1.3-0.8,2-0.8l0.6-0.1c0.1,0,0.3-0.1,0.3-0.3l0.1-0.6c0.1-1.4,0.8-2.5,1.8-3.4
	c1-0.9,2.3-1.4,3.7-1.4c1.4,0,2.5,0.5,3.5,1.4s1.6,2,1.8,3.4l0.1,0.8c0,0.1,0.1,0.3,0.3,0.3h2c1.1,0,2.1,0.4,2.9,1.3
	s1.3,1.8,1.3,2.9s-0.4,2-1.3,2.9c-0.8,0.8-1.8,1.3-2.9,1.3h-8.7c-0.1,0-0.3,0.1-0.3,0.3V22c0,0.1,0.1,0.3,0.3,0.3h8.7
	c0.9,0,1.6-0.1,2.4-0.5c0.8-0.4,1.4-0.8,2-1.3c0.6-0.5,1-1.3,1.3-2c0.3-0.8,0.5-1.5,0.5-2.4c0-1.1-0.3-2.1-0.9-3.2
	c-0.6-1-1.3-1.8-2.3-2.3c-1-0.5-2-0.9-3.2-0.9h-0.4c-0.4-1.6-1.3-3-2.6-4.2C19.3,4.6,17.8,4,16,4s-3.4,0.6-4.8,1.8S8.9,8.3,8.6,10
	c-1.1,0.3-2,0.8-2.9,1.5s-1.4,1.8-1.8,2.8H4.2C4.2,14.2,4.2,14.2,4.2,14.3z M5.5,25c0-0.3,0.1-0.5,0.4-0.8C6.2,24,6.4,24,6.7,24H18
	c0.3,0,0.6,0.1,0.8,0.3C19,24.5,19,24.8,19,25s-0.1,0.5-0.3,0.8S18.3,26,18,26H6.7c-0.3,0-0.5-0.1-0.8-0.3C5.7,25.5,5.5,25.3,5.5,25
	z"/>
</svg>
