<?xml version="1.0" encoding="utf-8"?>
<!-- Generator: Adobe Illustrator 24.3.0, SVG Export Plug-In . SVG Version: 6.00 Build 0)  -->
<svg version="1.1" id="Layer_1" xmlns="http://www.w3.org/2000/svg" xmlns:xlink="http://www.w3.org/1999/xlink" x="0px" y="0px"
	 viewBox="0 0 30 30" style="enable-background:new 0 0 30 30;" xml:space="preserve">
<path d="M4.4,15c0-0.2,0.1-0.4,0.2-0.6c0.2-0.2,0.4-0.2,0.6-0.2h2c0.2,0,0.4,0.1,0.6,0.2C8,14.6,8.1,14.8,8.1,15S8,15.4,7.9,15.6
	c-0.2,0.2-0.3,0.2-0.6,0.2h-2c-0.2,0-0.4-0.1-0.6-0.2C4.5,15.4,4.4,15.2,4.4,15z M7.2,21.9c0-0.2,0.1-0.4,0.2-0.6l1.5-1.4
	c0.1-0.2,0.4-0.2,0.6-0.2s0.4,0.1,0.6,0.2c0.2,0.2,0.2,0.3,0.2,0.6c0,0.2-0.1,0.5-0.2,0.6l-1.4,1.4c-0.4,0.3-0.8,0.3-1.2,0
	C7.3,22.3,7.2,22.2,7.2,21.9z M7.2,8.1c0-0.2,0.1-0.4,0.2-0.6c0.2-0.2,0.4-0.2,0.6-0.2c0.2,0,0.4,0.1,0.6,0.2l1.4,1.5
	c0.2,0.1,0.2,0.4,0.2,0.6s-0.1,0.4-0.2,0.6s-0.4,0.2-0.6,0.2s-0.4-0.1-0.6-0.2L7.5,8.7C7.3,8.5,7.2,8.3,7.2,8.1z M9.8,15
	c0-0.9,0.2-1.8,0.7-2.6c0.5-0.8,1.1-1.4,1.9-1.9s1.7-0.7,2.6-0.7c0.7,0,1.4,0.1,2,0.4c0.6,0.3,1.2,0.6,1.7,1.1
	c0.5,0.5,0.8,1,1.1,1.7c0.3,0.6,0.4,1.3,0.4,2c0,0.9-0.2,1.8-0.7,2.6c-0.5,0.8-1.1,1.4-1.9,1.9c-0.8,0.5-1.7,0.7-2.6,0.7
	c-0.9,0-1.8-0.2-2.6-0.7c-0.8-0.5-1.4-1.1-1.9-1.9C10,16.8,9.8,15.9,9.8,15z M11.5,15c0,1,0.3,1.8,1,2.5c0.7,0.7,1.5,1,2.5,1
	s1.8-0.3,2.5-1c0.7-0.7,1-1.5,1-2.5c0-1-0.4-1.8-1-2.5c-0.7-0.7-1.5-1-2.5-1c-1,0-1.8,0.3-2.5,1C11.8,13.2,11.5,14,11.5,15z
	 M14.1,22.8c0-0.2,0.1-0.4,0.2-0.6s0.4-0.2,0.6-0.2c0.2,0,0.5,0.1,0.6,0.2s0.2,0.4,0.2,0.6v2c0,0.2-0.1,0.5-0.2,0.6
	c-0.2,0.2-0.4,0.2-0.6,0.2c-0.2,0-0.4-0.1-0.6-0.2c-0.2-0.2-0.2-0.4-0.2-0.6C14.1,24.8,14.1,22.8,14.1,22.8z M14.1,7.3v-2
	c0-0.2,0.1-0.4,0.2-0.6s0.4-0.3,0.6-0.3s0.4,0.1,0.6,0.2s0.2,0.4,0.2,0.6v2.1c0,0.2-0.1,0.4-0.2,0.6C15.4,8,15.2,8.1,15,8.1
	S14.6,8,14.4,7.8C14.2,7.7,14.1,7.5,14.1,7.3z M19.7,20.5c0-0.2,0.1-0.4,0.2-0.6c0.1-0.2,0.3-0.2,0.6-0.2c0.2,0,0.4,0.1,0.6,0.2
	l1.5,1.4c0.2,0.2,0.2,0.4,0.2,0.6s-0.1,0.4-0.2,0.6c-0.4,0.3-0.8,0.3-1.2,0l-1.4-1.4C19.8,20.9,19.7,20.7,19.7,20.5z M19.7,9.5
	c0-0.2,0.1-0.4,0.2-0.6l1.4-1.5c0.2-0.2,0.4-0.2,0.6-0.2c0.2,0,0.4,0.1,0.6,0.2c0.2,0.2,0.2,0.4,0.2,0.6c0,0.2-0.1,0.5-0.2,0.6
	l-1.5,1.4c-0.2,0.2-0.4,0.2-0.6,0.2c-0.2,0-0.4-0.1-0.6-0.2S19.7,9.8,19.7,9.5z M21.9,15c0-0.2,0.1-0.4,0.2-0.6
	c0.2-0.2,0.4-0.2,0.6-0.2h2c0.2,0,0.4,0.1,0.6,0.3s0.3,0.4,0.3,0.6s-0.1,0.4-0.3,0.6s-0.4,0.2-0.6,0.2h-2c-0.2,0-0.4-0.1-0.6-0.2
	S21.9,15.2,21.9,15z"/>
</svg>
