<?xml version="1.0" encoding="utf-8"?>
<!-- Generator: Adobe Illustrator 24.3.0, SVG Export Plug-In . SVG Version: 6.00 Build 0)  -->
<svg version="1.1" id="Layer_1" xmlns="http://www.w3.org/2000/svg" xmlns:xlink="http://www.w3.org/1999/xlink" x="0px" y="0px"
	 viewBox="0 0 30 30" style="enable-background:new 0 0 30 30;" xml:space="preserve">
<path d="M0,15c0-0.3,0.1-0.6,0.3-0.8c0.3-0.3,0.6-0.3,0.8-0.3H4c0.3,0,0.6,0.1,0.8,0.3c0.3,0.3,0.4,0.6,0.4,0.8
	c0,0.3-0.1,0.6-0.3,0.8c-0.3,0.3-0.4,0.3-0.8,0.3H1.3c-0.3,0-0.6-0.1-0.8-0.3C0.1,15.6,0,15.3,0,15z M4,24.8c0-0.3,0.1-0.6,0.3-0.8
	l2.1-2c0.1-0.3,0.6-0.3,0.8-0.3s0.6,0.1,0.8,0.3c0.3,0.3,0.3,0.4,0.3,0.8c0,0.3-0.1,0.7-0.3,0.8l-2,2C5.5,26,5,26,4.4,25.6
	C4.1,25.3,4,25.2,4,24.8z M4,5.2C4,5,4.1,4.7,4.2,4.4c0.3-0.3,0.6-0.3,0.8-0.3c0.3,0,0.6,0.1,0.8,0.3l2,2.1c0.3,0.1,0.3,0.6,0.3,0.8
	S8.1,7.9,7.9,8.2S7.4,8.5,7.1,8.5S6.5,8.3,6.2,8.2L4.4,6.1C4.1,5.8,4,5.5,4,5.2z M7.6,15c0-1.3,0.3-2.5,1-3.7s1.6-2,2.7-2.7
	s2.4-1,3.7-1c1,0,2,0.1,2.8,0.6c0.8,0.4,1.7,0.8,2.4,1.6c0.7,0.7,1.1,1.4,1.6,2.4c0.4,0.8,0.6,1.8,0.6,2.8c0,1.3-0.3,2.5-1,3.7
	c-0.7,1.1-1.6,2-2.7,2.7c-1.1,0.7-2.4,1-3.7,1c-1.3,0-2.5-0.3-3.7-1c-1.1-0.7-2-1.6-2.7-2.7C7.9,17.5,7.6,16.3,7.6,15z M10,15
	c0,1.4,0.4,2.5,1.4,3.5c1,1,2.1,1.4,3.5,1.4s2.5-0.4,3.5-1.4c1-1,1.4-2.1,1.4-3.5s-0.6-2.5-1.4-3.5c-1-1-2.1-1.4-3.5-1.4
	s-2.5,0.4-3.5,1.4S10,13.6,10,15z M13.7,26c0-0.3,0.1-0.6,0.3-0.8c0.1-0.3,0.6-0.3,0.8-0.3c0.3,0,0.7,0.1,0.8,0.3S16,25.8,16,26v2.8
	c0,0.3-0.1,0.7-0.3,0.8C15.4,30,15.1,30,14.9,30c-0.3,0-0.6-0.1-0.8-0.3c-0.3-0.3-0.3-0.6-0.3-0.8V26z M13.7,4.1V1.3
	c0-0.3,0.1-0.6,0.3-0.8C14.2,0.1,14.6,0,14.9,0s0.6,0.1,0.8,0.3S16,0.8,16,1.1v3c0,0.3-0.1,0.6-0.3,0.8c-0.1,0.1-0.4,0.3-0.7,0.3
	c-0.3,0-0.6-0.1-0.8-0.4C13.9,4.7,13.7,4.4,13.7,4.1z M21.7,22.8c0-0.3,0.1-0.6,0.3-0.8s0.4-0.3,0.8-0.3c0.3,0,0.6,0.1,0.8,0.3
	l2.1,2c0.3,0.3,0.3,0.6,0.3,0.8s-0.1,0.6-0.3,0.8c-0.6,0.4-1.1,0.4-1.7,0l-2-2C21.8,23.3,21.7,23.1,21.7,22.8z M21.7,7.2
	c0-0.3,0.1-0.6,0.3-0.8l2-2.1C24.2,4,24.5,4,24.8,4s0.6,0.1,0.8,0.3c0.3,0.3,0.3,0.6,0.3,0.8c0,0.3-0.1,0.7-0.3,0.8l-2.1,2
	c-0.3,0.3-0.6,0.3-0.8,0.3s-0.6-0.1-0.8-0.3S21.7,7.6,21.7,7.2z M24.8,15c0-0.3,0.1-0.6,0.3-0.8c0.3-0.3,0.6-0.3,0.8-0.3h2.8
	c0.3,0,0.6,0.1,0.8,0.4c0.3,0.3,0.4,0.6,0.4,0.8s-0.1,0.6-0.4,0.8c-0.3,0.3-0.6,0.3-0.8,0.3h-2.8c-0.3,0-0.6-0.1-0.8-0.3
	S24.8,15.3,24.8,15z"/>
</svg>
