<?xml version="1.0" encoding="utf-8"?>
<!-- Generator: Adobe Illustrator 24.3.0, SVG Export Plug-In . SVG Version: 6.00 Build 0)  -->
<svg version="1.1" id="Layer_1" xmlns="http://www.w3.org/2000/svg" xmlns:xlink="http://www.w3.org/1999/xlink" x="0px" y="0px"
	 viewBox="0 0 30 30" style="enable-background:new 0 0 30 30;" xml:space="preserve">
<path d="M7.9,15c0-1,0.2-1.9,0.6-2.8S9.4,10.6,10,10s1.4-1.1,2.3-1.5c0.9-0.4,1.8-0.6,2.8-0.6h1.1c0.2,0,0.2,0.1,0.2,0.3l0,0.9
	c0,1.3,0.5,2.4,1.4,3.2c0.9,0.9,1.9,1.4,3.2,1.4l0.8,0.1c0.2,0,0.2,0.1,0.2,0.2v1c0,1.3-0.3,2.5-0.9,3.6c-0.6,1.1-1.5,2-2.6,2.6
	c-1.1,0.6-2.3,1-3.6,1c-1,0-1.9-0.2-2.8-0.6S10.6,20.7,10,20c-0.6-0.6-1.1-1.4-1.5-2.3C8.1,16.9,7.9,16,7.9,15z M9.8,15
	c0,0.8,0.1,1.5,0.4,2.2c0.3,0.7,0.7,1.2,1.2,1.7s1.1,0.8,1.7,1.1c0.6,0.3,1.3,0.4,1.9,0.4c0.6,0,1.2-0.1,1.8-0.3s1.1-0.5,1.6-1
	s0.9-0.9,1.3-1.6c0.4-0.6,0.6-1.3,0.7-2.1c-1.6-0.3-2.9-1-3.9-2.1S15,11,14.8,9.5c-1,0.1-1.8,0.3-2.6,0.9c-0.8,0.5-1.4,1.2-1.8,2
	C10,13.3,9.8,14.1,9.8,15z"/>
</svg>
