<?xml version="1.0" encoding="utf-8"?>
<!-- Generator: Adobe Illustrator 24.3.0, SVG Export Plug-In . SVG Version: 6.00 Build 0)  -->
<svg version="1.1" id="Layer_1" xmlns="http://www.w3.org/2000/svg" x="0px" y="0px" viewBox="0 0 30 30" style="enable-background:new 0 0 30 30;" xml:space="preserve">
<path d="M0.2,14.9c0-2.1,0.4-4,1.3-5.9s1.9-3.4,3.1-4.6s2.9-2.3,4.8-3.1C11.3,0.4,13.2,0,15.3,0h2.3C18,0,18,0.2,18,0.6v1.9
	c0,2.7,1,5,2.9,6.7c1.9,1.9,4,2.9,6.7,2.9l1.7,0.2c0.4,0,0.4,0.2,0.4,0.4v2.1c0,2.7-0.6,5.2-1.9,7.6c-1.3,2.3-3.1,4.2-5.5,5.5
	S17.6,30,14.9,30c-2.1,0-4-0.4-5.9-1.3c-1.9-0.8-3.1-1.9-4.4-3.4c-1.3-1.3-2.3-2.9-3.1-4.8C0.6,18.9,0.2,17,0.2,14.9z M4.2,14.9
	c0,1.7,0.2,3.1,0.8,4.6C5.7,21,6.5,22,7.6,23.1c1,1,2.3,1.7,3.6,2.3c1.3,0.6,2.7,0.8,4,0.8c1.3,0,2.5-0.2,3.8-0.6
	c1.3-0.4,2.3-1,3.4-2.1c1-1,1.9-1.9,2.7-3.4c0.8-1.3,1.3-2.7,1.5-4.4c-3.4-0.6-6.1-2.1-8.2-4.4s-3.1-4.8-3.6-8
	C12.6,3.6,10.9,4,9.2,5.2c-1.7,1-2.9,2.5-3.8,4.2C4.6,11.3,4.2,13,4.2,14.9z"/>
</svg>
