<?xml version="1.0" encoding="utf-8"?>
<!-- Generator: Adobe Illustrator 24.3.0, SVG Export Plug-In . SVG Version: 6.00 Build 0)  -->
<svg version="1.1" id="Layer_1" xmlns="http://www.w3.org/2000/svg" xmlns:xlink="http://www.w3.org/1999/xlink" x="0px" y="0px"
	 viewBox="0 0 30 30" style="enable-background:new 0 0 30 30;" xml:space="preserve">
<path d="M4.1,18.3c0-1.2,0.4-2.2,1.1-3.1s1.6-1.5,2.7-1.7c0.2-1,0.7-1.9,1.4-2.7c0.7-0.8,1.6-1.3,2.5-1.7c0.6-0.2,1.3-0.3,1.9-0.3
	c0.8,0,1.6,0.2,2.4,0.5c0.3-0.5,0.6-0.9,1-1.2c0.4-0.3,0.8-0.6,1.2-0.8s0.8-0.3,1.2-0.4s0.8-0.1,1.1-0.1c0.4,0,0.8,0.1,1.2,0.2
	l0.8,0.2c0.1,0.1,0.2,0.1,0.1,0.2L22.7,8c-0.1,0.3-0.1,0.6-0.1,0.9c0,0.3,0,0.6,0.1,1c0.1,0.3,0.2,0.6,0.4,0.9
	c0.2,0.3,0.5,0.6,0.8,0.8s0.7,0.4,1.1,0.6l0.6,0.2c0.1,0,0.1,0.1,0.1,0.2c0,0,0,0,0,0.1l-0.2,0.7c-0.3,1.1-0.8,1.9-1.5,2.6
	c0.4,0.7,0.6,1.4,0.6,2.2c0,0,0,0.1,0,0.2c0,0.9-0.2,1.7-0.7,2.5c-0.4,0.8-1,1.4-1.8,1.8c-0.8,0.4-1.6,0.7-2.5,0.7H9.1
	c-0.9,0-1.7-0.2-2.5-0.7c-0.8-0.5-1.3-1-1.8-1.8C4.4,20,4.1,19.2,4.1,18.3z M5.8,18.3c0,0.9,0.3,1.7,1,2.3c0.6,0.6,1.4,1,2.3,1h10.8
	c0.9,0,1.6-0.3,2.3-1s1-1.4,1-2.3c0-0.9-0.3-1.6-1-2.3c-0.6-0.6-1.4-1-2.3-1h-1.8L18,14.3c-0.1-1-0.5-1.9-1.3-2.6
	c-0.7-0.7-1.6-1.1-2.6-1.2c0,0-0.1,0-0.1,0s-0.1,0-0.1,0c-0.5,0-1,0.1-1.5,0.3v0c-0.7,0.3-1.4,0.7-1.8,1.4c-0.5,0.6-0.8,1.4-0.9,2.2
	l-0.1,0.7l-0.7,0c-0.8,0.1-1.5,0.5-2.1,1.1C6.1,16.8,5.8,17.5,5.8,18.3z M17.6,10.2c1.1,0.9,1.7,2,2,3.2h0.3c1.2,0,2.3,0.4,3.2,1.2
	c0.3-0.3,0.6-0.7,0.8-1.1c-0.9-0.4-1.6-1.1-2.2-2c-0.5-0.9-0.8-1.8-0.8-2.8V8.5c0,0-0.1,0-0.2,0c-0.6,0-1.1,0.1-1.7,0.4
	C18.4,9.2,17.9,9.6,17.6,10.2z"/>
</svg>
