<?xml version="1.0" encoding="utf-8"?>
<!-- Generator: Adobe Illustrator 24.3.0, SVG Export Plug-In . SVG Version: 6.00 Build 0)  -->
<svg version="1.1" id="Layer_1" xmlns="http://www.w3.org/2000/svg" xmlns:xlink="http://www.w3.org/1999/xlink" x="0px" y="0px"
	 viewBox="0 0 30 30" style="enable-background:new 0 0 30 30;" xml:space="preserve">
<path d="M1.6,20.5c0,0.9,0.2,1.7,0.7,2.5s1,1.4,1.8,1.8c0.8,0.4,1.6,0.7,2.5,0.7h10.8c0.9,0,1.7-0.2,2.5-0.7s1.4-1,1.8-1.8
	c0.4-0.8,0.7-1.6,0.7-2.5c0-0.7-0.1-1.3-0.4-2c0.8-0.9,1.1-2,1.1-3.3c0-0.7-0.1-1.4-0.4-2s-0.6-1.2-1.1-1.7c-0.5-0.5-1-0.9-1.7-1.1
	c-0.6-0.3-1.3-0.4-2-0.4c-1.5,0-2.8,0.6-3.9,1.7c-0.8-0.4-1.7-0.7-2.7-0.7c-1.4,0-2.6,0.4-3.7,1.3s-1.8,2-2.1,3.4
	c-1.1,0.3-2,0.8-2.7,1.7S1.6,19.4,1.6,20.5z M3.3,20.5c0-0.8,0.3-1.6,0.8-2.2s1.3-1,2.1-1.1l0.5,0c0.1,0,0.2-0.1,0.2-0.2L7,16.5
	c0.1-1.1,0.6-2,1.4-2.7c0.8-0.7,1.7-1.1,2.8-1.1c1.1,0,2.1,0.4,2.9,1.1c0.8,0.7,1.3,1.6,1.4,2.7l0.1,0.6c0,0.1,0.1,0.2,0.2,0.2h1.6
	c0.9,0,1.6,0.3,2.3,1c0.6,0.6,1,1.4,1,2.3c0,0.9-0.3,1.7-1,2.3c-0.6,0.6-1.4,1-2.3,1H6.5c-0.9,0-1.6-0.3-2.3-1
	C3.6,22.2,3.3,21.4,3.3,20.5z M10,8.3c0,0.2,0.1,0.4,0.2,0.6l0.7,0.6c0.2,0.2,0.5,0.3,0.6,0.2c0.2,0,0.4-0.1,0.6-0.3
	c0.2-0.2,0.2-0.4,0.2-0.6S12.2,8.5,12,8.3l-0.6-0.7c-0.2-0.2-0.4-0.2-0.6-0.2c-0.2,0-0.4,0.1-0.6,0.3C10.1,7.8,10,8,10,8.3z
	 M15.3,12.7c0.7-0.7,1.5-1,2.4-1c1,0,1.8,0.3,2.5,1s1,1.5,1,2.5c0,0.6-0.2,1.2-0.5,1.8c-1-1-2.1-1.4-3.5-1.4H17
	C16.8,14.5,16.2,13.6,15.3,12.7z M16.9,7.4c0,0.3,0.1,0.5,0.2,0.6c0.1,0.2,0.4,0.2,0.6,0.2c0.3,0,0.5-0.1,0.6-0.2
	c0.2-0.2,0.2-0.4,0.2-0.6V5.4c0-0.2-0.1-0.4-0.2-0.6S18,4.5,17.8,4.5c-0.2,0-0.4,0.1-0.6,0.2s-0.2,0.3-0.2,0.6V7.4z M22.5,9.7
	c0,0.3,0.1,0.5,0.2,0.6c0.2,0.2,0.4,0.2,0.6,0.2c0.2,0,0.4-0.1,0.6-0.2l1.4-1.4c0.2-0.2,0.2-0.4,0.2-0.6c0-0.2-0.1-0.4-0.2-0.6
	c-0.2-0.2-0.4-0.2-0.6-0.2c-0.2,0-0.4,0.1-0.6,0.2l-1.5,1.4C22.5,9.3,22.5,9.5,22.5,9.7z M23.2,21.5c0,0.2,0.1,0.5,0.2,0.6l0.6,0.6
	c0.1,0.2,0.3,0.2,0.6,0.2s0.4-0.1,0.6-0.2s0.2-0.4,0.2-0.6c0-0.2-0.1-0.4-0.2-0.6l-0.6-0.6c-0.2-0.2-0.4-0.2-0.6-0.2
	c-0.2,0-0.4,0.1-0.6,0.2C23.3,21.1,23.2,21.3,23.2,21.5z M24.7,15.2c0,0.2,0.1,0.4,0.3,0.6c0.2,0.2,0.4,0.2,0.6,0.2h2
	c0.2,0,0.4-0.1,0.6-0.2s0.2-0.4,0.2-0.6s-0.1-0.4-0.2-0.6s-0.4-0.2-0.6-0.2h-2c-0.2,0-0.4,0.1-0.6,0.2C24.8,14.8,24.7,15,24.7,15.2z
	"/>
</svg>
