<?xml version="1.0" encoding="utf-8"?>
<!-- Generator: Adobe Illustrator 24.3.0, SVG Export Plug-In . SVG Version: 6.00 Build 0)  -->
<svg version="1.1" id="Layer_1" xmlns="http://www.w3.org/2000/svg" x="0px" y="0px" viewBox="0 0 30 30" style="enable-background:new 0 0 30 30;" xml:space="preserve">
<path d="M0,21.2c0,1,0.2,1.9,0.8,2.8s1.1,1.6,2,2c0.9,0.4,1.8,0.8,2.8,0.8h12.1c1,0,1.9-0.2,2.8-0.8s1.6-1.1,2-2
	c0.4-0.9,0.8-1.8,0.8-2.8c0-0.8-0.1-1.5-0.4-2.2c0.9-1,1.2-2.2,1.2-3.7c0-0.8-0.1-1.6-0.4-2.2c-0.3-0.7-0.7-1.3-1.2-1.9
	c-0.6-0.6-1.1-1-1.9-1.2c-0.7-0.3-1.5-0.4-2.2-0.4c-1.7,0-3.1,0.7-4.4,1.9c-0.9-0.4-1.9-0.8-3-0.8c-1.6,0-2.9,0.4-4.1,1.5
	s-2,2.2-2.4,3.8c-1.2,0.3-2.2,0.9-3,1.9C0.6,18.7,0,19.9,0,21.2z M1.9,21.2c0-0.9,0.3-1.8,0.9-2.5s1.5-1.1,2.4-1.2h0.6
	c0.1,0,0.2-0.1,0.2-0.2L6,16.7c0.1-1.2,0.7-2.2,1.6-3s1.9-1.2,3.1-1.2s2.4,0.4,3.2,1.2c0.9,0.8,1.5,1.8,1.6,3l0.1,0.7
	c0,0.1,0.1,0.2,0.2,0.2h1.8c1,0,1.8,0.3,2.6,1.1c0.7,0.7,1.1,1.6,1.1,2.6c0,1-0.3,1.9-1.1,2.6c-0.7,0.7-1.6,1.1-2.6,1.1H5.5
	c-1,0-1.8-0.3-2.6-1.1C2.2,23.1,1.9,22.2,1.9,21.2z M9.4,7.5c0,0.2,0.1,0.4,0.2,0.7l0.8,0.7c0.2,0.2,0.6,0.3,0.7,0.2
	c0.2,0,0.4-0.1,0.7-0.3S12,8.3,12,8.1c0-0.2-0.1-0.3-0.3-0.6L11,6.7c-0.2-0.2-0.4-0.2-0.7-0.2c-0.2,0-0.4,0.1-0.7,0.3
	C9.5,6.9,9.4,7.2,9.4,7.5z M15.3,12.4c0.8-0.8,1.7-1.1,2.7-1.1c1.1,0,2,0.3,2.8,1.1c0.8,0.8,1.1,1.7,1.1,2.8c0,0.7-0.2,1.3-0.6,2
	c-1.1-1.1-2.4-1.6-3.9-1.6h-0.2C17,14.4,16.3,13.4,15.3,12.4z M17.1,6.5c0,0.3,0.1,0.6,0.2,0.7c0.1,0.2,0.4,0.2,0.7,0.2
	c0.3,0,0.6-0.1,0.7-0.2c0.2-0.2,0.2-0.4,0.2-0.7V4.3c0-0.2-0.1-0.4-0.2-0.7c-0.1-0.2-0.3-0.3-0.6-0.3c-0.2,0-0.4,0.1-0.7,0.2
	c-0.2,0.1-0.2,0.3-0.2,0.7v2.4H17.1z M23.4,9.1c0,0.3,0.1,0.6,0.2,0.7c0.2,0.2,0.4,0.2,0.7,0.2c0.2,0,0.4-0.1,0.7-0.2l1.6-1.6
	c0.2-0.2,0.2-0.4,0.2-0.7c0-0.2-0.1-0.4-0.2-0.7c-0.2-0.2-0.4-0.2-0.7-0.2c-0.2,0-0.4,0.1-0.7,0.2l-1.7,1.6
	C23.4,8.6,23.4,8.8,23.4,9.1z M24.2,22.3c0,0.2,0.1,0.6,0.2,0.7l0.7,0.7c0.1,0.2,0.3,0.2,0.7,0.2c0.3,0,0.4-0.1,0.7-0.2
	c0.2-0.1,0.2-0.4,0.2-0.7c0-0.2-0.1-0.4-0.2-0.7l-0.7-0.7c-0.2-0.2-0.4-0.2-0.7-0.2c-0.2,0-0.4,0.1-0.7,0.2
	C24.3,21.8,24.2,22.1,24.2,22.3z M25.9,15.2c0,0.2,0.1,0.4,0.3,0.7c0.2,0.2,0.4,0.2,0.7,0.2h2.2c0.2,0,0.4-0.1,0.7-0.2
	c0.2-0.1,0.2-0.4,0.2-0.7c0-0.2-0.1-0.4-0.2-0.7c-0.1-0.2-0.4-0.2-0.7-0.2h-2.2c-0.2,0-0.4,0.1-0.7,0.2C26,14.8,25.9,15,25.9,15.2z"
	/>
</svg>
