<?xml version="1.0" encoding="utf-8"?>
<!-- Generator: Adobe Illustrator 24.3.0, SVG Export Plug-In . SVG Version: 6.00 Build 0)  -->
<svg version="1.1" id="Layer_1" xmlns="http://www.w3.org/2000/svg" xmlns:xlink="http://www.w3.org/1999/xlink" x="0px" y="0px"
	 viewBox="0 0 30 30" style="enable-background:new 0 0 30 30;" xml:space="preserve">
<path d="M0,19.4c0-1.7,0.6-3.1,1.5-4.3s2.2-2.1,3.7-2.4c0.3-1.4,1-2.6,1.9-3.7s2.2-1.8,3.5-2.4c0.8-0.3,1.8-0.4,2.6-0.4
	c1.1,0,2.2,0.3,3.3,0.7c0.4-0.7,0.8-1.2,1.4-1.7s1.1-0.8,1.7-1.1c0.6-0.3,1.1-0.4,1.7-0.6c0.6-0.1,1.1-0.1,1.5-0.1
	c0.6,0,1.1,0.1,1.7,0.3L25.7,4c0.1,0.1,0.3,0.1,0.1,0.3v0.8c-0.1,0.4-0.1,0.8-0.1,1.2c0,0.4,0,0.8,0.1,1.4C26,8.2,26.1,8.6,26.4,9
	c0.3,0.4,0.7,0.8,1.1,1.1c0.4,0.3,1,0.6,1.5,0.8l0.8,0.3c0.1,0,0.1,0.1,0.1,0.3c0,0,0,0,0,0.1l-0.3,1c-0.4,1.5-1.1,2.6-2.1,3.6
	c0.6,1,0.8,1.9,0.8,3.1c0,0,0,0.1,0,0.3c0,1.2-0.3,2.4-1,3.5c-0.6,1.1-1.4,1.9-2.5,2.5c-1.1,0.6-2.2,1-3.5,1H6.9
	c-1.2,0-2.4-0.3-3.5-1S1.7,24.2,1,23.1C0.4,21.8,0,20.7,0,19.4z M2.4,19.4c0,1.2,0.4,2.4,1.4,3.2C4.6,23.5,5.7,24,6.9,24h15
	c1.2,0,2.2-0.4,3.2-1.4c1-1,1.4-1.9,1.4-3.2s-0.4-2.2-1.4-3.2c-0.8-0.8-1.9-1.4-3.2-1.4h-2.5l-0.1-1c-0.1-1.4-0.7-2.6-1.8-3.6
	c-1-1-2.2-1.5-3.6-1.7h-0.1h-0.1c-0.7,0-1.4,0.1-2.1,0.4l0,0c-1,0.4-1.9,1-2.5,1.9c-0.7,0.8-1.1,1.9-1.2,3.1l-0.1,1h-1
	c-1.1,0.1-2.1,0.7-2.9,1.5C2.8,17.4,2.4,18.3,2.4,19.4z M18.8,8.2c1.5,1.2,2.4,2.8,2.8,4.4h0.4c1.7,0,3.2,0.6,4.4,1.7
	c0.4-0.4,0.8-1,1.1-1.5c-1.2-0.6-2.2-1.5-3.1-2.8c-0.7-1.2-1.1-2.5-1.1-3.9V5.8c0,0-0.1,0-0.3,0c-0.8,0-1.5,0.1-2.4,0.6
	C19.9,6.8,19.2,7.4,18.8,8.2z"/>
</svg>
