<?xml version="1.0" encoding="utf-8"?>
<!-- Generator: Adobe Illustrator 24.3.0, SVG Export Plug-In . SVG Version: 6.00 Build 0)  -->
<svg version="1.1" id="Layer_1" xmlns="http://www.w3.org/2000/svg" xmlns:xlink="http://www.w3.org/1999/xlink" x="0px" y="0px"
	 viewBox="0 0 30 30" style="enable-background:new 0 0 30 30;" xml:space="preserve">
<path d="M0,17.3c0,1.8,0.7,3.5,1.9,4.7c1.3,1.4,2.9,2.1,4.7,2.1c0.1,0,0.3-0.1,0.3-0.3v-1.9c0,0-0.1,0-0.3,0
	c-1.2-0.1-2.2-0.6-3.1-1.4s-1.2-1.9-1.2-3.1s0.4-2.2,1.2-3.1C4.4,13.5,5.4,13,6.5,13l0.7-0.1c0.1,0,0.3-0.1,0.3-0.3l0.1-0.7
	c0.1-1.5,0.8-2.8,1.9-3.8c1.1-1,2.5-1.5,4-1.5s2.9,0.6,4,1.5s1.8,2.2,1.9,3.8l0.1,0.8c0,0.1,0.1,0.3,0.3,0.3h1.9
	c1.2,0,2.4,0.4,3.2,1.2c0.8,0.8,1.4,1.9,1.4,3.2c0,1.2-0.4,2.2-1.2,3.1s-1.8,1.4-3.1,1.4c-0.1,0-0.3,0.1-0.3,0.3v1.9
	c0,0.1,0.1,0.3,0.3,0.3c1.8,0,3.5-0.7,4.7-2.1c1.2-1.4,1.9-2.9,1.9-4.9c0-1-0.1-1.9-0.6-2.8c1.1-1.4,1.7-2.9,1.7-4.7
	c0-1.2-0.3-2.5-1-3.6s-1.5-1.9-2.6-2.6c-1.1-0.7-2.4-1-3.6-1c-2.1,0-3.9,0.8-5.4,2.5c-1.1-0.6-2.4-0.8-3.8-0.8
	c-1.9,0-3.8,0.6-5.3,1.8S5.8,9,5.4,10.9c-1.5,0.4-2.8,1.1-3.8,2.4C0.6,14.2,0,15.8,0,17.3z M8.3,18.5c0,0.6,0.1,1,0.6,1.4
	c0.4,0.4,0.8,0.6,1.4,0.6s1-0.1,1.4-0.6c0.4-0.4,0.6-0.8,0.6-1.4c0-0.4-0.1-0.8-0.6-1.4c-0.3-0.6-0.6-1.1-1-1.4c0,0-0.1-0.1-0.3-0.3
	c-0.1-0.1-0.3-0.3-0.3-0.3l-0.6,0.6c-0.4,0.4-0.7,0.8-1.1,1.4C8.5,17.7,8.3,18.1,8.3,18.5z M12.5,24.1c0,0.8,0.3,1.7,1,2.2
	c0.7,0.6,1.4,1,2.2,1c0.8,0,1.7-0.3,2.4-1c0.7-0.7,1-1.4,1-2.2c0-0.4-0.1-0.8-0.3-1.4c-0.3-0.6-0.4-1-0.8-1.4
	c-0.7-0.8-1.2-1.5-1.8-2.1c-0.1,0-0.1-0.1-0.4-0.3l-0.8,0.8c-0.6,0.6-1.2,1.4-1.7,2.2C12.6,22.7,12.5,23.4,12.5,24.1z M14.4,14.8
	c0,0.4,0.1,0.7,0.4,1s0.6,0.4,1,0.4s0.7-0.1,1-0.4s0.4-0.6,0.4-1c0-0.6-0.4-1.2-1.2-2.2L15.7,13c-0.3,0.3-0.6,0.6-0.7,1
	C14.6,14.2,14.4,14.5,14.4,14.8z M19.2,6.5c1-1,2.1-1.4,3.5-1.4s2.5,0.4,3.5,1.4s1.4,2.1,1.4,3.5c0,0.8-0.3,1.7-0.7,2.6
	c-1.4-1.4-3.1-1.9-4.9-1.9h-0.4C21.1,8.8,20.4,7.4,19.2,6.5z"/>
</svg>
