<?xml version="1.0" encoding="utf-8"?>
<!-- Generator: Adobe Illustrator 24.3.0, SVG Export Plug-In . SVG Version: 6.00 Build 0)  -->
<svg version="1.1" id="Layer_1" xmlns="http://www.w3.org/2000/svg" x="0px" y="0px" viewBox="0 0 30 30" style="enable-background:new 0 0 30 30;" xml:space="preserve">
<path d="M0,20c0,1,0.2,1.9,0.7,2.7c0.4,0.9,1.1,1.6,1.9,2c0.8,0.6,1.7,0.8,2.7,0.8c0.1,0,0.2-0.1,0.2-0.2v-1.5
	c0-0.1-0.1-0.2-0.2-0.2c-0.9,0-1.8-0.4-2.5-1.1s-1-1.6-1-2.5s0.3-1.7,0.9-2.4c0.7-0.7,1.5-1.1,2.4-1.2h0.6c0.1,0,0.2-0.1,0.2-0.2
	l0.2-0.7c0.1-1.2,0.7-2.2,1.6-3c0.9-0.8,2-1.2,3.1-1.2c1.2,0,2.2,0.4,3.1,1.2c0.9,0.8,1.5,1.8,1.6,3l0.1,0.7c0,0.1,0.1,0.2,0.2,0.2
	h1.8c1,0,1.8,0.3,2.6,1.1c0.7,0.7,1.1,1.6,1.1,2.6c0,1-0.3,1.8-1,2.5c-0.7,0.7-1.5,1.1-2.5,1.1c-0.1,0-0.2,0.1-0.2,0.2v1.5
	c0,0.1,0.1,0.2,0.2,0.2c1,0,1.9-0.3,2.7-0.8c0.8-0.4,1.5-1.1,1.9-2c0.4-0.9,0.7-1.8,0.7-2.7c0-0.8-0.1-1.6-0.4-2.2
	c0.9-1.1,1.3-2.4,1.3-3.7c0-1-0.2-2-0.8-2.9c-0.6-0.9-1.2-1.6-2.1-2.1c-0.9-0.6-1.9-0.8-2.9-0.8c-1.7,0-3.1,0.7-4.4,1.9
	c-0.9-0.4-1.9-0.8-3-0.8c-1.6,0-2.9,0.4-4.2,1.5s-2,2.2-2.4,3.7c-1.2,0.3-2.2,0.9-3,1.9C0.3,17.5,0,18.8,0,20z M6.6,21
	c0,0.4,0.1,0.8,0.4,1.1c0.3,0.3,0.7,0.4,1.1,0.4c0.4,0,0.8-0.1,1.1-0.4s0.4-0.7,0.4-1.1c0-0.2-0.1-0.7-0.4-1.1
	c-0.2-0.4-0.4-0.9-0.7-1.1c-0.2-0.2-0.4-0.4-0.4-0.4l-0.4,0.4c-0.3,0.3-0.6,0.7-0.8,1.1C6.7,20.3,6.6,20.7,6.6,21z M9.4,6.3
	c0,0.3,0.1,0.6,0.2,0.7l0.7,0.8c0.4,0.3,0.9,0.3,1.3,0c0.2-0.2,0.2-0.4,0.2-0.7c0-0.2-0.1-0.4-0.2-0.7L11,5.6
	c-0.2-0.2-0.4-0.2-0.7-0.2c-0.2,0-0.4,0.1-0.7,0.2C9.4,5.7,9.4,6,9.4,6.3z M9.9,25.4c0,0.8,0.2,1.3,0.8,1.8c0.6,0.4,1.1,0.8,1.8,0.8
	c0.7,0,1.3-0.2,1.9-0.8c0.6-0.6,0.8-1.1,0.8-1.8c0-0.6-0.3-1.3-0.9-2.2c-0.6-0.7-1-1.2-1.5-1.7c-0.1-0.1-0.2-0.1-0.3-0.2l-0.2,0.2
	c-0.4,0.3-0.9,0.9-1.5,1.7C10.2,24,9.9,24.8,9.9,25.4z M11.6,18c0,0.2,0.1,0.6,0.3,0.7c0.2,0.2,0.4,0.3,0.8,0.3
	c0.3,0,0.6-0.1,0.8-0.3c0.2-0.2,0.3-0.4,0.3-0.7c0-0.4-0.3-1.1-1-1.8l-0.2,0.2c-0.2,0.2-0.4,0.4-0.6,0.8
	C11.7,17.5,11.6,17.8,11.6,18z M15.4,11.2c0.8-0.8,1.7-1.1,2.8-1.1c1.1,0,2,0.3,2.8,1.1c0.8,0.8,1.1,1.7,1.1,2.8
	c0,0.7-0.2,1.3-0.6,2c-1.1-1.1-2.4-1.6-3.9-1.6h-0.3C17,13.1,16.3,12.1,15.4,11.2z M17.2,5.3c0,0.2,0.1,0.4,0.3,0.7
	c0.2,0.2,0.4,0.2,0.7,0.2s0.4-0.1,0.7-0.2c0.2-0.2,0.2-0.4,0.2-0.7V3c0-0.2-0.1-0.4-0.2-0.7S18.4,2,18.2,2s-0.4,0.1-0.7,0.2
	c-0.2,0.2-0.3,0.4-0.3,0.8V5.3z M23.4,7.9c0,0.2,0.1,0.4,0.2,0.7c0.2,0.2,0.4,0.2,0.7,0.2s0.4-0.1,0.7-0.2L26.5,7
	c0.2-0.2,0.3-0.4,0.3-0.7c0-0.2-0.1-0.4-0.2-0.7c-0.1-0.2-0.4-0.2-0.7-0.2s-0.4,0.1-0.7,0.2l-1.6,1.6C23.5,7.4,23.4,7.6,23.4,7.9z
	 M24.3,21.1c0,0.2,0.1,0.6,0.2,0.7l0.7,0.7c0.1,0.2,0.3,0.3,0.7,0.3c0.2,0,0.4-0.1,0.7-0.3c0.2-0.2,0.3-0.4,0.3-0.7
	s-0.1-0.4-0.3-0.7l-0.7-0.7c-0.2-0.2-0.4-0.2-0.7-0.2s-0.4,0.1-0.7,0.2S24.3,20.9,24.3,21.1z M26,14c0,0.2,0.1,0.4,0.2,0.7
	s0.4,0.2,0.7,0.2h2.2c0.2,0,0.4-0.1,0.7-0.2C30,14.5,30,14.3,30,14s-0.1-0.4-0.2-0.7s-0.4-0.2-0.7-0.2h-2.2c-0.2,0-0.4,0.1-0.7,0.2
	S26,13.8,26,14z"/>
</svg>
