<?xml version="1.0" encoding="utf-8"?>
<!-- Generator: Adobe Illustrator 24.3.0, SVG Export Plug-In . SVG Version: 6.00 Build 0)  -->
<svg version="1.1" id="Layer_1" xmlns="http://www.w3.org/2000/svg" xmlns:xlink="http://www.w3.org/1999/xlink" x="0px" y="0px"
	 viewBox="0 0 30 30" style="enable-background:new 0 0 30 30;" xml:space="preserve">
<path d="M4.2,16.7c0,1.3,0.5,2.5,1.4,3.4c0.9,1,2.1,1.5,3.4,1.5c0.1,0,0.2-0.1,0.2-0.2v-1.4C9.2,20,9.1,20,9,20
	c-0.9-0.1-1.6-0.4-2.2-1c-0.6-0.6-0.9-1.4-0.9-2.2c0-0.8,0.3-1.6,0.9-2.2c0.6-0.6,1.3-1,2.1-1l0.5-0.1c0.1,0,0.2-0.1,0.2-0.2
	l0.1-0.5c0.1-1.1,0.6-2,1.4-2.7c0.8-0.7,1.8-1.1,2.9-1.1c1.1,0,2.1,0.4,2.9,1.1c0.8,0.7,1.3,1.6,1.4,2.7l0.1,0.6
	c0,0.1,0.1,0.2,0.2,0.2H20c0.9,0,1.7,0.3,2.3,0.9c0.6,0.6,1,1.4,1,2.3c0,0.9-0.3,1.6-0.9,2.2c-0.6,0.6-1.3,1-2.2,1
	c-0.1,0-0.2,0.1-0.2,0.2v1.4c0,0.1,0.1,0.2,0.2,0.2c1.3,0,2.5-0.5,3.4-1.5c0.9-1,1.4-2.1,1.4-3.5c0-0.7-0.1-1.4-0.4-2
	c0.8-1,1.2-2.1,1.2-3.4c0-0.9-0.2-1.8-0.7-2.6c-0.5-0.8-1.1-1.4-1.9-1.9c-0.8-0.5-1.7-0.7-2.6-0.7c-1.5,0-2.8,0.6-3.9,1.8
	c-0.8-0.4-1.7-0.6-2.7-0.6c-1.4,0-2.7,0.4-3.8,1.3c-1.1,0.9-1.8,2-2.1,3.4c-1.1,0.3-2,0.8-2.7,1.7C4.6,14.5,4.2,15.6,4.2,16.7z
	 M10.2,17.6c0,0.4,0.1,0.7,0.4,1c0.3,0.3,0.6,0.4,1,0.4s0.7-0.1,1-0.4s0.4-0.6,0.4-1c0-0.3-0.1-0.6-0.4-1c-0.2-0.4-0.4-0.8-0.7-1
	c0,0-0.1-0.1-0.2-0.2c-0.1-0.1-0.2-0.2-0.2-0.2l-0.4,0.4c-0.3,0.3-0.5,0.6-0.8,1C10.3,17,10.2,17.3,10.2,17.6z M13.2,21.6
	c0,0.6,0.2,1.2,0.7,1.6s1,0.7,1.6,0.7c0.6,0,1.2-0.2,1.7-0.7c0.5-0.5,0.7-1,0.7-1.6c0-0.3-0.1-0.6-0.2-1c-0.2-0.4-0.3-0.7-0.6-1
	c-0.5-0.6-0.9-1.1-1.3-1.5c-0.1,0-0.1-0.1-0.3-0.2l-0.6,0.6c-0.4,0.4-0.9,1-1.2,1.6C13.3,20.6,13.2,21.1,13.2,21.6z M14.6,14.9
	c0,0.3,0.1,0.5,0.3,0.7s0.4,0.3,0.7,0.3c0.3,0,0.5-0.1,0.7-0.3s0.3-0.4,0.3-0.7c0-0.4-0.3-0.9-0.9-1.6l-0.2,0.3
	c-0.2,0.2-0.4,0.4-0.5,0.7C14.7,14.5,14.6,14.7,14.6,14.9z M18,8.9c0.7-0.7,1.5-1,2.5-1s1.8,0.3,2.5,1s1,1.5,1,2.5
	c0,0.6-0.2,1.2-0.5,1.9c-1-1-2.2-1.4-3.5-1.4h-0.3C19.4,10.6,18.9,9.6,18,8.9z"/>
</svg>
