<?xml version="1.0" encoding="utf-8"?>
<!-- Generator: Adobe Illustrator 24.3.0, SVG Export Plug-In . SVG Version: 6.00 Build 0)  -->
<svg version="1.1" id="Layer_1" xmlns="http://www.w3.org/2000/svg" xmlns:xlink="http://www.w3.org/1999/xlink" x="0px" y="0px"
	 viewBox="0 0 30 30" style="enable-background:new 0 0 30 30;" xml:space="preserve">
<path d="M1.6,19.4c0,0.9,0.2,1.7,0.6,2.4c0.4,0.8,1,1.4,1.7,1.8c0.7,0.5,1.5,0.7,2.4,0.7c0.1,0,0.2-0.1,0.2-0.2v-1.3
	c0-0.1-0.1-0.2-0.2-0.2c-0.8,0-1.6-0.4-2.2-1s-0.9-1.4-0.9-2.2c0-0.8,0.3-1.5,0.8-2.1c0.6-0.6,1.3-1,2.1-1.1l0.5,0
	c0.1,0,0.2-0.1,0.2-0.2L7,15.4c0.1-1.1,0.6-2,1.4-2.7s1.8-1.1,2.8-1.1c1.1,0,2,0.4,2.8,1.1s1.3,1.6,1.4,2.7l0.1,0.6
	c0,0.1,0.1,0.2,0.2,0.2h1.6c0.9,0,1.6,0.3,2.3,1c0.6,0.6,1,1.4,1,2.3c0,0.9-0.3,1.6-0.9,2.2c-0.6,0.6-1.3,1-2.2,1
	c-0.1,0-0.2,0.1-0.2,0.2v1.3c0,0.1,0.1,0.2,0.2,0.2c0.9,0,1.7-0.3,2.4-0.7s1.3-1,1.7-1.8s0.6-1.6,0.6-2.4c0-0.7-0.1-1.4-0.4-2
	c0.8-1,1.2-2.1,1.2-3.3c0-0.9-0.2-1.8-0.7-2.6s-1.1-1.4-1.9-1.9c-0.8-0.5-1.7-0.7-2.6-0.7c-1.5,0-2.8,0.6-3.9,1.7
	c-0.8-0.4-1.7-0.7-2.7-0.7c-1.4,0-2.6,0.4-3.7,1.3c-1.1,0.9-1.8,2-2.1,3.3c-1.1,0.3-2,0.8-2.7,1.7C1.9,17.2,1.6,18.3,1.6,19.4z
	 M7.5,20.3c0,0.4,0.1,0.7,0.4,1s0.6,0.4,1,0.4c0.4,0,0.7-0.1,1-0.4s0.4-0.6,0.4-1c0-0.2-0.1-0.6-0.4-1c-0.2-0.4-0.4-0.8-0.6-1
	c-0.2-0.2-0.4-0.4-0.4-0.4l-0.4,0.4c-0.3,0.3-0.5,0.6-0.7,1S7.5,20,7.5,20.3z M10,7.2c0,0.3,0.1,0.5,0.2,0.6l0.6,0.7
	c0.4,0.3,0.8,0.3,1.2,0c0.2-0.2,0.2-0.4,0.2-0.6s-0.1-0.4-0.2-0.6l-0.6-0.7c-0.2-0.2-0.4-0.2-0.6-0.2c-0.2,0-0.4,0.1-0.6,0.2
	S10,6.9,10,7.2z M10.4,24.2c0,0.7,0.2,1.2,0.7,1.6s1,0.7,1.6,0.7s1.2-0.2,1.7-0.7c0.5-0.5,0.7-1,0.7-1.6c0-0.5-0.3-1.2-0.8-2
	c-0.5-0.6-0.9-1.1-1.3-1.5c-0.1-0.1-0.2-0.1-0.3-0.2l-0.2,0.2c-0.4,0.3-0.8,0.8-1.3,1.5C10.7,23,10.4,23.7,10.4,24.2z M11.9,17.6
	c0,0.2,0.1,0.5,0.3,0.6c0.2,0.2,0.4,0.3,0.7,0.3c0.3,0,0.5-0.1,0.7-0.3s0.3-0.4,0.3-0.6c0-0.4-0.3-1-0.9-1.6l-0.2,0.2
	c-0.2,0.2-0.4,0.4-0.5,0.7C12,17.2,11.9,17.4,11.9,17.6z M15.3,11.6c0.7-0.7,1.5-1,2.5-1c1,0,1.8,0.3,2.5,1c0.7,0.7,1,1.5,1,2.5
	c0,0.6-0.2,1.2-0.5,1.8c-1-1-2.1-1.4-3.5-1.4H17C16.7,13.3,16.1,12.4,15.3,11.6z M16.9,6.3c0,0.2,0.1,0.4,0.3,0.6s0.4,0.2,0.6,0.2
	s0.4-0.1,0.6-0.2c0.2-0.2,0.2-0.4,0.2-0.6v-2c0-0.2-0.1-0.4-0.2-0.6S18,3.4,17.8,3.4s-0.4,0.1-0.6,0.2C17,3.8,16.9,4,16.9,4.3V6.3z
	 M22.4,8.6c0,0.2,0.1,0.4,0.2,0.6c0.2,0.2,0.4,0.2,0.6,0.2c0.2,0,0.4-0.1,0.6-0.2l1.4-1.4c0.2-0.2,0.3-0.4,0.3-0.6
	c0-0.2-0.1-0.4-0.2-0.6s-0.4-0.2-0.6-0.2c-0.2,0-0.4,0.1-0.6,0.2L22.7,8C22.5,8.2,22.4,8.4,22.4,8.6z M23.2,20.4
	c0,0.2,0.1,0.5,0.2,0.6l0.6,0.6c0.1,0.2,0.3,0.3,0.6,0.3c0.2,0,0.4-0.1,0.6-0.3c0.2-0.2,0.3-0.4,0.3-0.6s-0.1-0.4-0.3-0.6l-0.6-0.6
	c-0.2-0.2-0.4-0.2-0.6-0.2c-0.2,0-0.4,0.1-0.6,0.2S23.2,20.2,23.2,20.4z M24.7,14.1c0,0.2,0.1,0.4,0.2,0.6s0.4,0.2,0.6,0.2h2
	c0.2,0,0.4-0.1,0.6-0.2c0.2-0.2,0.2-0.4,0.2-0.6s-0.1-0.4-0.2-0.6s-0.4-0.2-0.6-0.2h-2c-0.2,0-0.4,0.1-0.6,0.2S24.7,13.9,24.7,14.1z
	"/>
</svg>
