<?xml version="1.0" encoding="utf-8"?>
<!-- Generator: Adobe Illustrator 24.3.0, SVG Export Plug-In . SVG Version: 6.00 Build 0)  -->
<svg version="1.1" id="Layer_1" xmlns="http://www.w3.org/2000/svg" xmlns:xlink="http://www.w3.org/1999/xlink" x="0px" y="0px"
	 viewBox="0 0 30 30" style="enable-background:new 0 0 30 30;" xml:space="preserve">
<path d="M1.5,17.6c0,1.3,0.5,2.5,1.4,3.4s2.1,1.5,3.4,1.5c0.1,0,0.2-0.1,0.2-0.2v-1.3c0-0.1-0.1-0.2-0.2-0.2c-0.9,0-1.6-0.4-2.2-1
	s-0.9-1.4-0.9-2.3c0-0.8,0.3-1.5,0.8-2.2s1.3-1,2.1-1.1l0.5-0.1c0.1,0,0.2-0.1,0.2-0.2L7,13.6c0.1-1.1,0.6-2,1.4-2.7
	s1.8-1.1,2.9-1.1s2,0.4,2.9,1.1s1.3,1.6,1.4,2.7l0.1,0.6c0,0.1,0.1,0.2,0.2,0.2h1.6c0.9,0,1.6,0.3,2.3,1s1,1.4,1,2.3
	c0,0.9-0.3,1.6-0.9,2.3s-1.3,1-2.2,1c-0.1,0-0.2,0.1-0.2,0.2v1.3c0,0.1,0.1,0.2,0.2,0.2c1.3,0,2.5-0.5,3.4-1.5
	c0.9-1,1.4-2.1,1.4-3.5c0-0.7-0.1-1.4-0.4-2c0.8-1,1.2-2.1,1.2-3.3c0-0.9-0.2-1.8-0.7-2.6s-1.1-1.4-1.9-1.9C19.6,7.3,18.7,7,17.8,7
	c-1.6,0-2.9,0.6-3.9,1.7c-0.8-0.4-1.7-0.7-2.7-0.7c-1.4,0-2.7,0.4-3.8,1.3s-1.8,2-2.1,3.4c-1.1,0.3-2,0.8-2.7,1.7S1.5,16.5,1.5,17.6
	z M6.9,24.5c0,0.2,0.1,0.3,0.2,0.5c0.1,0.2,0.3,0.3,0.5,0.3c0.1,0,0.2,0,0.3,0c0.4,0,0.7-0.2,0.8-0.6l1.6-5.9c0.1-0.2,0-0.5-0.1-0.7
	c-0.1-0.2-0.3-0.3-0.5-0.4c-0.2-0.1-0.4,0-0.6,0.1c-0.2,0.1-0.3,0.3-0.4,0.5l-1.6,5.9C6.9,24.4,6.9,24.5,6.9,24.5z M9.5,27.6
	c0,0.2,0.1,0.4,0.1,0.5c0.1,0.2,0.3,0.3,0.5,0.3c0.1,0,0.2,0,0.3,0c0.2,0,0.3-0.1,0.4-0.2c0.1-0.1,0.2-0.3,0.3-0.5l2.4-8.9
	c0.1-0.2,0-0.5-0.1-0.6s-0.3-0.3-0.5-0.4c-0.2-0.1-0.4,0-0.6,0.1C12.2,18,12,18.1,12,18.4l-2.4,8.9C9.5,27.5,9.5,27.5,9.5,27.6z
	 M9.9,5.3c0,0.2,0.1,0.4,0.2,0.6l0.6,0.7c0.2,0.2,0.4,0.2,0.6,0.2c0.2,0,0.4-0.1,0.6-0.2c0.2-0.2,0.3-0.3,0.3-0.6
	c0-0.2-0.1-0.5-0.2-0.6l-0.6-0.7c-0.2-0.2-0.4-0.2-0.6-0.2c-0.2,0-0.4,0.1-0.6,0.3C10,4.9,9.9,5.1,9.9,5.3z M13.7,24.5
	c0,0.2,0.1,0.3,0.1,0.5s0.3,0.3,0.5,0.3c0.1,0,0.2,0,0.2,0c0.2,0,0.3,0,0.5-0.1s0.2-0.3,0.3-0.5l1.6-5.9c0.1-0.2,0-0.5-0.1-0.6
	c-0.1-0.2-0.3-0.3-0.5-0.4c-0.2-0.1-0.5,0-0.7,0.1c-0.2,0.1-0.3,0.3-0.4,0.5l-1.6,5.9C13.7,24.4,13.7,24.5,13.7,24.5z M15.3,9.8
	c0.7-0.7,1.5-1,2.5-1c1,0,1.8,0.4,2.5,1c0.7,0.7,1,1.5,1,2.5c0,0.6-0.2,1.2-0.5,1.9c-1-1-2.1-1.4-3.5-1.4H17
	C16.7,11.5,16.1,10.6,15.3,9.8z M16.9,4.5c0,0.2,0.1,0.4,0.2,0.6s0.4,0.2,0.6,0.2c0.2,0,0.4-0.1,0.6-0.2c0.2-0.2,0.2-0.3,0.2-0.6
	V2.5c0-0.3-0.1-0.5-0.2-0.6c-0.2-0.2-0.4-0.2-0.6-0.2c-0.2,0-0.5,0.1-0.6,0.2C17,2,16.9,2.2,16.9,2.5L16.9,4.5L16.9,4.5z M22.5,6.8
	c0,0.2,0.1,0.4,0.3,0.6c0.1,0.2,0.3,0.2,0.5,0.3s0.4-0.1,0.6-0.3l1.4-1.4c0.2-0.2,0.3-0.4,0.3-0.6c0-0.2-0.1-0.4-0.2-0.6
	S25,4.5,24.7,4.5c-0.2,0-0.4,0.1-0.6,0.2l-1.4,1.4C22.5,6.3,22.5,6.5,22.5,6.8z M23.3,18.6c0,0.2,0.1,0.5,0.2,0.6l0.6,0.6
	c0.2,0.1,0.4,0.2,0.6,0.2l0,0c0.2,0,0.4-0.1,0.6-0.2s0.2-0.4,0.2-0.6s-0.1-0.4-0.3-0.6L24.7,18c-0.2-0.2-0.4-0.2-0.6-0.2
	s-0.4,0.1-0.6,0.2S23.3,18.4,23.3,18.6z M24.7,12.3c0,0.2,0.1,0.4,0.3,0.6c0.2,0.2,0.4,0.3,0.6,0.3h2c0.2,0,0.4-0.1,0.6-0.2
	s0.2-0.4,0.2-0.6c0-0.2-0.1-0.4-0.2-0.6s-0.4-0.3-0.6-0.3h-2c-0.2,0-0.4,0.1-0.6,0.3S24.7,12.1,24.7,12.3z"/>
</svg>
