<?xml version="1.0" encoding="utf-8"?>
<!-- Generator: Adobe Illustrator 24.3.0, SVG Export Plug-In . SVG Version: 6.00 Build 0)  -->
<svg version="1.1" id="Layer_1" xmlns="http://www.w3.org/2000/svg" xmlns:xlink="http://www.w3.org/1999/xlink" x="0px" y="0px"
	 viewBox="0 0 30 30" style="enable-background:new 0 0 30 30;" xml:space="preserve">
<path d="M0,17.8c0,1.4,0.6,2.8,1.6,3.8c1,1,2.3,1.7,3.8,1.7c0.1,0,0.2-0.1,0.2-0.2v-1.4c0-0.1-0.1-0.2-0.2-0.2c-1,0-1.8-0.4-2.5-1.1
	c-0.7-0.7-1-1.6-1-2.6c0-0.9,0.3-1.7,0.9-2.5c0.6-0.8,1.4-1.1,2.3-1.2l0.6-0.1c0.1,0,0.2-0.1,0.2-0.2l0.2-0.3c0.1-1.2,0.7-2.2,1.6-3
	c0.9-0.8,2-1.2,3.2-1.2s2.2,0.4,3.2,1.2c1,0.8,1.4,1.8,1.6,3l0.1,0.7c0,0.1,0.1,0.2,0.2,0.2h1.8c1,0,1.8,0.3,2.6,1.1
	c0.8,0.8,1.1,1.6,1.1,2.6s-0.3,1.8-1,2.6c-0.7,0.8-1.4,1.1-2.5,1.1c-0.1,0-0.2,0.1-0.2,0.2v1.4c0,0.1,0.1,0.2,0.2,0.2
	c1.4,0,2.8-0.6,3.8-1.7c1-1.1,1.6-2.3,1.6-3.9c0-0.8-0.1-1.6-0.4-2.2c0.9-1.1,1.3-2.3,1.3-3.7c0-1-0.2-2-0.8-2.9S22.3,7.6,21.4,7
	c-1.2-0.7-2.2-1-3.2-1c-1.8,0-3.2,0.7-4.3,1.9c-0.9-0.4-1.9-0.8-3-0.8c-1.6,0-3,0.4-4.2,1.4s-2,2.2-2.3,3.8c-1.2,0.3-2.2,0.9-3,1.9
	S0,16.6,0,17.8z M6,25.5c0,0.2,0.1,0.3,0.2,0.6s0.3,0.3,0.6,0.3c0.1,0,0.2,0,0.3,0c0.4,0,0.8-0.2,0.9-0.7l1.8-6.6
	c0.1-0.2,0-0.6-0.1-0.8S9.4,18.1,9.1,18s-0.4,0-0.7,0.1c-0.2,0.1-0.3,0.3-0.4,0.6l-1.8,6.6C6,25.4,6,25.5,6,25.5z M8.9,29
	c0,0.2,0.1,0.4,0.1,0.6c0.1,0.2,0.3,0.3,0.6,0.3c0.1,0,0.2,0,0.3,0c0.2,0,0.3-0.1,0.4-0.2c0.1-0.1,0.2-0.3,0.3-0.6l2.7-9.9
	c0.1-0.2,0-0.6-0.1-0.7s-0.3-0.3-0.6-0.4s-0.4,0-0.7,0.1c-0.1,0.1-0.3,0.2-0.3,0.6L9,28.7C8.9,28.9,8.9,28.9,8.9,29z M9.4,4.1
	c0,0.2,0.1,0.4,0.2,0.7l0.7,0.8c0.2,0.2,0.4,0.2,0.7,0.2c0.2,0,0.4-0.1,0.7-0.2c0.2-0.2,0.3-0.3,0.3-0.7c0-0.2-0.1-0.6-0.2-0.7
	L11,3.5c-0.2-0.2-0.4-0.2-0.7-0.2c-0.2,0-0.4,0.1-0.7,0.3C9.5,3.7,9.4,3.9,9.4,4.1z M13.6,25.5c0,0.2,0.1,0.3,0.1,0.6
	s0.3,0.3,0.6,0.3c0.1,0,0.2,0,0.2,0c0.2,0,0.3,0,0.6-0.1s0.2-0.3,0.3-0.6l1.8-6.6c0.1-0.2,0-0.6-0.1-0.7c-0.1-0.2-0.3-0.3-0.6-0.4
	s-0.6,0-0.8,0.1c-0.2,0.1-0.3,0.3-0.4,0.6l-1.8,6.6C13.6,25.4,13.6,25.5,13.6,25.5z M15.4,9.1C16.2,8.4,17.1,8,18.2,8s2,0.4,2.8,1.1
	c0.8,0.8,1.1,1.7,1.1,2.8c0,0.7-0.2,1.3-0.6,2.1c-1.1-1.1-2.3-1.6-3.9-1.6h-0.3C17,11,16.3,10,15.4,9.1z M17.2,3.2
	c0,0.2,0.1,0.4,0.2,0.7s0.4,0.2,0.7,0.2s0.4-0.1,0.7-0.2C19,3.7,19,3.6,19,3.2V1c0-0.3-0.1-0.6-0.2-0.7c-0.2-0.2-0.4-0.2-0.7-0.2
	s-0.6,0.1-0.7,0.2S17.2,0.7,17.2,1V3.2L17.2,3.2z M23.4,5.8c0,0.2,0.1,0.4,0.3,0.7c0.1,0.2,0.3,0.2,0.6,0.3s0.4-0.1,0.7-0.3l1.6-1.6
	c0.2-0.2,0.3-0.4,0.3-0.7c0-0.2-0.1-0.4-0.2-0.7c-0.1-0.2-0.4-0.3-0.8-0.3c-0.2,0-0.4,0.1-0.7,0.2L23.6,5
	C23.4,5.2,23.4,5.5,23.4,5.8z M24.3,19c0,0.2,0.1,0.6,0.2,0.7l0.7,0.7c0.2,0.1,0.4,0.2,0.7,0.2l0,0c0.2,0,0.4-0.1,0.7-0.2
	s0.2-0.4,0.2-0.7s-0.1-0.4-0.3-0.7l-0.6-0.7c-0.2-0.2-0.4-0.2-0.7-0.2s-0.4,0.1-0.7,0.2S24.3,18.7,24.3,19z M25.9,11.9
	c0,0.2,0.1,0.4,0.3,0.7c0.2,0.2,0.4,0.3,0.7,0.3h2.2c0.2,0,0.4-0.1,0.7-0.2C30,12.6,30,12.3,30,12c0-0.2-0.1-0.4-0.2-0.7
	S29.3,11,29.1,11h-2.2c-0.2,0-0.4,0.1-0.7,0.3S25.9,11.7,25.9,11.9z"/>
</svg>
