<?xml version="1.0" encoding="utf-8"?>
<!-- Generator: Adobe Illustrator 24.3.0, SVG Export Plug-In . SVG Version: 6.00 Build 0)  -->
<svg version="1.1" id="Layer_1" xmlns="http://www.w3.org/2000/svg" xmlns:xlink="http://www.w3.org/1999/xlink" x="0px" y="0px"
	 viewBox="0 0 30 30" style="enable-background:new 0 0 30 30;" xml:space="preserve">
<path d="M0.3,15.5c0,1.7,0.7,3.3,1.9,4.6s2.8,2,4.6,2C6.9,22.1,7,22,7,21.8v-1.7c0-0.1-0.1-0.3-0.3-0.3c-1.2,0-2.1-0.5-2.9-1.3
	s-1.2-1.9-1.2-3.1c0-1.1,0.4-2.1,1.1-2.9s1.7-1.3,2.8-1.5h0.7c0.1,0,0.3-0.1,0.3-0.3L7.6,10c0.1-1.5,0.8-2.7,1.9-3.6S11.9,5,13.3,5
	s2.7,0.5,3.9,1.5S19,8.6,19.1,10l0.1,0.8c0,0.1,0.1,0.3,0.3,0.3h2.1c1.2,0,2.3,0.4,3.1,1.3s1.3,1.9,1.3,3.1s-0.4,2.1-1.2,3.1
	C24,19.6,23.1,20,21.9,20c-0.1,0-0.3,0.1-0.3,0.3V22c0,0.1,0.1,0.3,0.3,0.3c1.7,0,3.3-0.7,4.6-2c1.2-1.3,1.9-2.8,1.9-4.7
	c0-1.2-0.3-2.3-0.9-3.3c1.1-0.9,1.7-2.1,2.1-3.5l0.1-0.9c0,0,0,0,0-0.1c0-0.1,0-0.1-0.3-0.3l-0.8-0.3c-0.8-0.3-1.5-0.5-2-1.1
	C26,5.5,25.6,5,25.4,4.4C25.1,3.9,25,3.2,25,2.7c0-0.3,0-0.7,0.1-1.1l0.1-0.8c0-0.1,0-0.3-0.1-0.3l-0.9-0.3C23.5,0.1,23,0,22.4,0
	c-0.5,0-1.1,0-1.5,0.1c-0.5,0.1-1.1,0.3-1.6,0.5c-0.5,0.3-1.1,0.5-1.6,1.1c-0.5,0.5-0.9,1.1-1.3,1.6c-1.1-0.3-2.1-0.4-3.1-0.4
	c-1.9,0-3.6,0.5-5.1,1.7S5.8,7.4,5.4,9.2C4,9.6,2.7,10.3,1.8,11.5C0.7,12.7,0.3,14.1,0.3,15.5z M7.7,24.8c0,0.3,0.1,0.4,0.3,0.7
	s0.4,0.4,0.7,0.4c0.3,0.1,0.5,0,0.8,0c0.3-0.1,0.4-0.4,0.5-0.8l1.9-7.9c0.1-0.3,0-0.7-0.1-0.9c-0.1-0.3-0.4-0.4-0.7-0.5
	c-0.3-0.1-0.5,0-0.8,0.1s-0.4,0.4-0.5,0.7l-1.9,7.9c0,0,0,0,0,0.1C7.7,24.6,7.7,24.6,7.7,24.8z M11.2,28.9c0,0.3,0.1,0.4,0.1,0.7
	c0.1,0.1,0.3,0.3,0.5,0.4c0.1,0,0.3,0,0.3,0c0.5,0,0.9-0.3,1.1-0.8l2.9-11.9c0.1-0.3,0-0.7-0.1-0.8c-0.1-0.3-0.4-0.4-0.7-0.5
	c-0.3-0.1-0.5,0-0.9,0.1c-0.4,0.1-0.4,0.4-0.5,0.7l-3.1,11.9c0,0,0,0,0,0.1C11.2,28.8,11.2,28.8,11.2,28.9z M16.8,24.9
	c0,0.5,0.3,0.8,0.8,0.9c0.1,0,0.3,0.1,0.4,0.1c0.1,0,0.3,0,0.5-0.1c0.3-0.1,0.4-0.4,0.5-0.8l1.9-7.9c0.1-0.3,0-0.7-0.1-0.8
	c-0.1-0.3-0.4-0.4-0.7-0.5c-0.3-0.1-0.7,0-0.9,0.1c-0.3,0.1-0.4,0.4-0.5,0.7l-1.9,7.9C16.8,24.6,16.8,24.8,16.8,24.9z M18.4,4.7
	c0.4-0.8,1.1-1.3,1.7-1.7c0.7-0.4,1.5-0.5,2.4-0.5c0.1,0,0.3,0,0.4,0v0.4c0,1.3,0.3,2.5,1.1,3.7c0.7,1.2,1.7,2,2.9,2.7
	c-0.3,0.7-0.7,1.1-1.1,1.5c-1.2-1.1-2.7-1.5-4.3-1.5h-0.4C20.7,7.2,19.8,5.9,18.4,4.7z"/>
</svg>
