<?xml version="1.0" encoding="utf-8"?>
<!-- Generator: Adobe Illustrator 24.3.0, SVG Export Plug-In . SVG Version: 6.00 Build 0)  -->
<svg version="1.1" id="Layer_1" xmlns="http://www.w3.org/2000/svg" xmlns:xlink="http://www.w3.org/1999/xlink" x="0px" y="0px"
	 viewBox="0 0 30 30" style="enable-background:new 0 0 30 30;" xml:space="preserve">
<path d="M1.6,17.8c0,0.9,0.2,1.7,0.6,2.4c0.4,0.7,1,1.3,1.7,1.8c0.7,0.5,1.5,0.7,2.4,0.7c0.1,0,0.2-0.1,0.2-0.2v-1.3
	c0-0.1-0.1-0.2-0.2-0.2c-0.8,0-1.6-0.4-2.2-1s-0.9-1.4-0.9-2.2c0-0.8,0.3-1.5,0.8-2.2c0.6-0.6,1.3-1,2.1-1.1l0.5-0.1
	c0.1,0,0.2-0.1,0.2-0.2L7,13.8c0.1-1.1,0.6-2,1.4-2.7s1.8-1.1,2.8-1.1c1.1,0,2,0.4,2.9,1.1c0.8,0.7,1.3,1.6,1.4,2.7l0.1,0.6
	c0,0.1,0.1,0.2,0.2,0.2h1.6c0.9,0,1.7,0.3,2.3,1c0.6,0.6,1,1.4,1,2.3c0,0.8-0.3,1.6-0.9,2.2c-0.6,0.6-1.3,1-2.2,1
	c-0.1,0-0.2,0.1-0.2,0.2v1.3c0,0.1,0.1,0.2,0.2,0.2c1.3,0,2.5-0.5,3.4-1.5s1.4-2.1,1.4-3.4c0-0.8-0.1-1.4-0.4-2
	c0.8-0.9,1.2-2,1.2-3.3c0-0.9-0.2-1.8-0.7-2.6c-0.5-0.8-1.1-1.4-1.9-1.9s-1.7-0.7-2.6-0.7c-1.5,0-2.8,0.6-3.9,1.7
	c-0.8-0.4-1.7-0.7-2.7-0.7c-1.4,0-2.6,0.4-3.7,1.3s-1.8,2-2.1,3.3c-1.1,0.3-2,0.9-2.7,1.8C1.9,15.6,1.6,16.6,1.6,17.8z M7.9,21.8
	c0,0.2,0.1,0.4,0.2,0.6s0.4,0.2,0.6,0.2c0.2,0,0.4-0.1,0.6-0.2s0.2-0.4,0.2-0.6c0-0.2-0.1-0.4-0.2-0.6S9,21,8.7,21
	c-0.2,0-0.4,0.1-0.6,0.2S7.9,21.6,7.9,21.8z M7.9,25.5c0,0.2,0.1,0.4,0.2,0.6c0.2,0.2,0.4,0.2,0.6,0.2c0.2,0,0.4-0.1,0.6-0.2
	c0.2-0.2,0.2-0.4,0.2-0.6c0-0.2-0.1-0.4-0.2-0.6S9,24.6,8.7,24.6c-0.2,0-0.4,0.1-0.6,0.2C8,25,7.9,25.2,7.9,25.5z M10,5.5
	C10,5.8,10,6,10.2,6.1l0.7,0.7C11,6.9,11.2,7,11.4,7c0.2,0,0.4,0,0.6-0.2s0.3-0.4,0.3-0.6c0-0.2-0.1-0.5-0.2-0.6l-0.6-0.6
	c-0.1-0.2-0.3-0.2-0.6-0.2c-0.2,0-0.5,0.1-0.6,0.2C10,5.1,10,5.3,10,5.5z M11.1,23.7c0,0.2,0.1,0.4,0.2,0.6c0.2,0.2,0.4,0.2,0.6,0.2
	c0.2,0,0.4-0.1,0.6-0.2s0.2-0.4,0.2-0.6c0-0.2-0.1-0.4-0.2-0.6s-0.4-0.2-0.6-0.2c-0.2,0-0.4,0.1-0.6,0.2S11.1,23.5,11.1,23.7z
	 M11.1,20.1c0,0.2,0.1,0.4,0.2,0.6s0.4,0.2,0.6,0.2c0.2,0,0.4-0.1,0.6-0.2c0.2-0.2,0.2-0.4,0.2-0.6c0-0.2-0.1-0.4-0.2-0.6
	s-0.4-0.2-0.6-0.2c-0.2,0-0.4,0.1-0.6,0.2S11.1,19.9,11.1,20.1z M11.1,27.4c0,0.2,0.1,0.4,0.2,0.6c0.2,0.2,0.4,0.2,0.6,0.2
	c0.2,0,0.4-0.1,0.6-0.2c0.2-0.2,0.2-0.4,0.2-0.6s-0.1-0.4-0.2-0.6c-0.2-0.2-0.4-0.2-0.6-0.2c-0.2,0-0.4,0.1-0.6,0.2
	C11.2,27,11.1,27.2,11.1,27.4z M14.3,21.8c0,0.2,0.1,0.4,0.2,0.6s0.4,0.2,0.6,0.2s0.4-0.1,0.6-0.2s0.2-0.4,0.2-0.6
	c0-0.2-0.1-0.4-0.2-0.6S15.4,21,15.1,21s-0.4,0.1-0.6,0.2S14.3,21.6,14.3,21.8z M14.3,25.5c0,0.2,0.1,0.4,0.2,0.6
	c0.2,0.2,0.4,0.2,0.6,0.2c0.2,0,0.4-0.1,0.6-0.2c0.2-0.2,0.2-0.4,0.2-0.6c0-0.2-0.1-0.4-0.2-0.6s-0.4-0.2-0.6-0.2s-0.4,0.1-0.6,0.2
	C14.4,25,14.3,25.2,14.3,25.5z M15.3,9.9c0.7-0.7,1.5-1,2.5-1c1,0,1.8,0.4,2.5,1c0.7,0.7,1,1.5,1,2.5c0,0.6-0.2,1.2-0.5,1.8
	c-1-1-2.1-1.4-3.5-1.4H17C16.7,11.7,16.1,10.7,15.3,9.9z M16.9,4.7c0,0.2,0.1,0.4,0.2,0.6s0.4,0.2,0.6,0.2s0.4-0.1,0.6-0.2
	c0.2-0.2,0.2-0.3,0.2-0.6v-2c0-0.2-0.1-0.4-0.2-0.6c-0.2-0.2-0.3-0.2-0.6-0.2S17.3,1.9,17.2,2s-0.3,0.4-0.3,0.6L16.9,4.7L16.9,4.7z
	 M22.4,7c0,0.2,0.1,0.4,0.2,0.6c0.1,0.2,0.3,0.2,0.6,0.3s0.4-0.1,0.6-0.3l1.4-1.4c0.2-0.2,0.3-0.4,0.3-0.6c0-0.2-0.1-0.4-0.3-0.6
	s-0.4-0.2-0.6-0.2c-0.2,0-0.4,0.1-0.6,0.2l-1.4,1.5C22.5,6.5,22.4,6.7,22.4,7z M23.2,18.8c0,0.2,0.1,0.5,0.2,0.6l0.6,0.6
	c0.2,0.2,0.5,0.2,0.6,0.2c0.2,0,0.4-0.1,0.6-0.3s0.2-0.4,0.2-0.6c0-0.2-0.1-0.4-0.3-0.6l-0.6-0.6c-0.2-0.2-0.4-0.2-0.6-0.2
	s-0.4,0.1-0.6,0.2C23.3,18.3,23.2,18.5,23.2,18.8z M24.7,12.4c0,0.2,0.1,0.4,0.3,0.6c0.2,0.2,0.4,0.3,0.6,0.3h2
	c0.2,0,0.4-0.1,0.6-0.2s0.2-0.4,0.2-0.6s-0.1-0.4-0.2-0.6s-0.4-0.2-0.6-0.2h-2c-0.2,0-0.4,0.1-0.6,0.2S24.7,12.2,24.7,12.4z"/>
</svg>
