<?xml version="1.0" encoding="utf-8"?>
<!-- Generator: Adobe Illustrator 24.3.0, SVG Export Plug-In . SVG Version: 6.00 Build 0)  -->
<svg version="1.1" id="Layer_1" xmlns="http://www.w3.org/2000/svg" x="0px" y="0px" viewBox="0 0 30 30" style="enable-background:new 0 0 30 30;" xml:space="preserve">
<path d="M0.1,15.7c0,1.8,0.7,3.4,1.9,4.6c1.2,1.4,2.9,2,4.6,2c0.1,0,0.3-0.1,0.3-0.3v-1.6c0-0.1-0.1-0.3-0.3-0.3
	c-1.2,0-2.2-0.5-3-1.4c-0.8-0.8-1.2-1.9-1.2-3c0-1.2,0.4-2.2,1.1-3c0.8-0.8,1.8-1.4,2.9-1.4l0.7-0.1c0.1,0,0.3-0.1,0.3-0.3l0.1-0.7
	C7.6,9,8.3,7.7,9.4,6.7s2.4-1.5,3.9-1.5c1.5,0,2.7,0.5,3.9,1.5c1.1,1,1.8,2.2,1.9,3.7l0.1,0.8c0,0.1,0.1,0.3,0.3,0.3h2.2
	c1.2,0,2.3,0.4,3.1,1.4c0.8,0.8,1.4,1.9,1.4,3.1s-0.4,2.2-1.2,3c-0.8,0.8-1.8,1.4-3,1.4c-0.1,0-0.3,0.1-0.3,0.3v1.8
	c0,0.1,0.1,0.3,0.3,0.3c1.2,0,2.3-0.4,3.3-1c1-0.5,1.8-1.4,2.3-2.4c0.5-1.1,0.8-2.2,0.8-3.3c0-1.2-0.3-2.3-0.8-3.4c1-1,1.6-2,2-3.5
	l0.3-1c0,0,0,0,0-0.1c0-0.1,0-0.1-0.3-0.3l-0.8-0.3c-0.7-0.1-1.2-0.4-1.6-0.7c-0.4-0.3-0.8-0.7-1.1-1.1c-0.3-0.5-0.5-1-0.7-1.4
	c-0.1-0.4-0.1-0.8-0.1-1.2s0-0.8,0.1-1.2L25.5,1c0-0.1,0-0.3-0.1-0.3l-1.1-0.3C23.6,0.1,23.1,0,22.5,0s-1,0-1.5,0.1S20,0.4,19.4,0.7
	c-0.5,0.3-1.1,0.5-1.6,1.1c-0.5,0.4-1,1.1-1.4,1.6c-1.1-0.3-2.2-0.5-3.1-0.5c-1.9,0-3.7,0.5-5.2,1.8S5.7,7.3,5.3,9.2
	c-1.5,0.4-2.7,1.2-3.8,2.4C0.5,12.8,0.1,14.3,0.1,15.7z M8.8,21.3c0,0.3,0.1,0.5,0.3,0.8c0.3,0.3,0.5,0.3,0.8,0.3s0.5-0.1,0.8-0.3
	c0.3-0.3,0.3-0.5,0.3-0.8s-0.1-0.5-0.3-0.8s-0.5-0.3-0.8-0.3c-0.3,0-0.5,0.1-0.8,0.3C8.8,20.6,8.8,21,8.8,21.3z M8.8,26.3
	c0,0.3,0.1,0.5,0.3,0.8s0.5,0.3,0.8,0.3c0.3,0,0.5-0.1,0.8-0.3c0.3-0.3,0.3-0.4,0.3-0.8c0-0.3-0.1-0.5-0.3-0.8
	c-0.1-0.3-0.5-0.3-0.8-0.3c-0.3,0-0.5,0.1-0.8,0.3C8.8,25.7,8.8,25.9,8.8,26.3z M13.2,24c0,0.3,0.1,0.5,0.3,0.8
	c0.3,0.3,0.5,0.3,0.8,0.3c0.3,0,0.5-0.1,0.8-0.3c0.3-0.1,0.3-0.5,0.3-0.8s-0.1-0.5-0.3-0.8c-0.3-0.3-0.5-0.4-0.8-0.4
	c-0.3,0-0.5,0.1-0.8,0.4C13.2,23.3,13.2,23.6,13.2,24z M13.2,19c0,0.3,0.1,0.5,0.3,0.8c0.3,0.3,0.5,0.3,0.8,0.3
	c0.3,0,0.5-0.1,0.8-0.3c0.3-0.1,0.3-0.4,0.3-0.8c0-0.3-0.1-0.5-0.3-0.8c-0.3-0.3-0.5-0.3-0.8-0.3c-0.3,0-0.5,0.1-0.8,0.3
	C13.2,18.5,13.2,18.7,13.2,19z M13.2,28.9c0,0.3,0.1,0.5,0.3,0.8C13.7,30,14,30,14.3,30c0.3,0,0.5-0.1,0.8-0.3
	c0.3-0.1,0.3-0.4,0.3-0.8c0-0.3-0.1-0.5-0.3-0.8c-0.3-0.3-0.5-0.4-0.8-0.4c-0.3,0-0.5,0.1-0.8,0.4C13.3,28.4,13.2,28.6,13.2,28.9z
	 M17.5,21.3c0,0.3,0.1,0.5,0.3,0.8c0.1,0.3,0.5,0.3,0.8,0.3s0.5-0.1,0.8-0.3c0.3-0.3,0.3-0.5,0.3-0.8s-0.1-0.5-0.3-0.8
	s-0.5-0.3-0.8-0.3s-0.5,0.1-0.8,0.3C17.5,20.6,17.5,21,17.5,21.3z M17.5,26.3c0,0.3,0.1,0.5,0.3,0.8c0.1,0.3,0.5,0.3,0.8,0.3
	s0.5-0.1,0.8-0.3c0.3-0.1,0.3-0.5,0.3-0.8s-0.1-0.5-0.3-0.8c-0.3-0.3-0.5-0.3-0.8-0.3s-0.5,0.1-0.8,0.3
	C17.6,25.7,17.5,25.9,17.5,26.3z M18.5,4.8c0.4-0.7,1.1-1.4,1.8-1.8c0.7-0.4,1.5-0.7,2.3-0.7c0.1,0,0.4,0,0.4,0v0.5
	c0,1.4,0.4,2.6,1.1,3.7c0.7,1.1,1.6,2,3,2.7c-0.3,0.5-0.5,1-1.1,1.5c-1.2-1.1-2.7-1.6-4.3-1.6h-0.4C20.8,7.3,19.8,6,18.5,4.8z"/>
</svg>
