<?xml version="1.0" encoding="utf-8"?>
<!-- Generator: Adobe Illustrator 24.3.0, SVG Export Plug-In . SVG Version: 6.00 Build 0)  -->
<svg version="1.1" id="Layer_1" xmlns="http://www.w3.org/2000/svg" x="0px" y="0px" viewBox="0 0 30 30" style="enable-background:new 0 0 30 30;" xml:space="preserve">
<path d="M0,18.1c0,1,0.2,1.9,0.7,2.7c0.4,0.8,1.1,1.5,1.9,2s1.7,0.8,2.7,0.8c0.1,0,0.2-0.1,0.2-0.2v-1.5c0-0.1-0.1-0.2-0.2-0.2
	c-0.9,0-1.8-0.4-2.5-1.1s-1-1.6-1-2.5c0-0.9,0.3-1.7,0.9-2.5c0.7-0.7,1.5-1.1,2.4-1.2l0.6-0.1c0.1,0,0.2-0.1,0.2-0.2L6,13.6
	c0.1-1.2,0.7-2.2,1.6-3c0.9-0.8,2-1.2,3.1-1.2c1.2,0,2.2,0.4,3.2,1.2c0.9,0.8,1.5,1.8,1.6,3l0.1,0.7c0,0.1,0.1,0.2,0.2,0.2h1.8
	c1,0,1.9,0.3,2.6,1.1c0.7,0.7,1.1,1.6,1.1,2.6c0,0.9-0.3,1.8-1,2.5s-1.5,1.1-2.5,1.1c-0.1,0-0.2,0.1-0.2,0.2v1.5
	c0,0.1,0.1,0.2,0.2,0.2c1.5,0,2.8-0.6,3.8-1.7c1-1.1,1.6-2.4,1.6-3.8c0-0.9-0.1-1.6-0.4-2.2c0.9-1,1.3-2.2,1.3-3.7
	c0-1-0.2-2-0.8-2.9c-0.6-0.9-1.2-1.6-2.1-2.1s-1.9-0.8-2.9-0.8c-1.7,0-3.1,0.7-4.4,1.9c-0.9-0.4-1.9-0.8-3-0.8C9.4,7.6,8.1,8,6.8,9
	s-2,2.2-2.4,3.7c-1.2,0.3-2.2,1-3,2C0.3,15.6,0,16.7,0,18.1z M7.1,22.6c0,0.2,0.1,0.4,0.2,0.7c0.1,0.2,0.4,0.2,0.7,0.2
	c0.2,0,0.4-0.1,0.7-0.2c0.2-0.1,0.2-0.4,0.2-0.7c0-0.2-0.1-0.4-0.2-0.7c-0.1-0.2-0.3-0.2-0.7-0.2c-0.2,0-0.4,0.1-0.7,0.2
	C7.1,22,7.1,22.3,7.1,22.6z M7.1,26.7c0,0.2,0.1,0.4,0.2,0.7c0.2,0.2,0.4,0.2,0.7,0.2c0.2,0,0.4-0.1,0.7-0.2
	c0.2-0.2,0.2-0.4,0.2-0.7c0-0.2-0.1-0.4-0.2-0.7c-0.1-0.2-0.3-0.3-0.7-0.3c-0.2,0-0.4,0.1-0.7,0.2C7.2,26.1,7.1,26.4,7.1,26.7z
	 M9.4,4.3c0,0.3,0,0.6,0.2,0.7l0.8,0.8C10.5,5.9,10.7,6,11,6c0.2,0,0.4,0,0.7-0.2C11.9,5.5,12,5.3,12,5.1s-0.1-0.6-0.2-0.7l-0.7-0.7
	c-0.1-0.2-0.3-0.2-0.7-0.2c-0.2,0-0.6,0.1-0.7,0.2C9.4,3.9,9.4,4.1,9.4,4.3z M10.6,24.7c0,0.2,0.1,0.4,0.2,0.7
	c0.2,0.2,0.4,0.2,0.7,0.2c0.2,0,0.4-0.1,0.7-0.2c0.2-0.1,0.2-0.4,0.2-0.7c0-0.2-0.1-0.4-0.2-0.7c-0.1-0.2-0.4-0.2-0.7-0.2
	s-0.4,0.1-0.7,0.2C10.6,24.1,10.6,24.5,10.6,24.7z M10.6,20.7c0,0.2,0.1,0.4,0.2,0.7s0.4,0.2,0.7,0.2c0.2,0,0.4-0.1,0.7-0.2
	c0.2-0.2,0.2-0.4,0.2-0.7s-0.1-0.4-0.2-0.7c-0.1-0.2-0.4-0.2-0.7-0.2s-0.4,0.1-0.7,0.2S10.6,20.4,10.6,20.7z M10.6,28.8
	c0,0.2,0.1,0.4,0.2,0.7c0.2,0.2,0.4,0.2,0.7,0.2c0.2,0,0.4-0.1,0.7-0.2c0.2-0.2,0.2-0.4,0.2-0.7c0-0.2-0.1-0.4-0.2-0.7
	c-0.2-0.2-0.4-0.2-0.7-0.2s-0.4,0.1-0.7,0.2C10.7,28.4,10.6,28.6,10.6,28.8z M14.2,22.6c0,0.2,0.1,0.4,0.2,0.7
	c0.1,0.2,0.4,0.2,0.7,0.2c0.2,0,0.4-0.1,0.7-0.2c0.2-0.1,0.2-0.4,0.2-0.7c0-0.2-0.1-0.4-0.2-0.7c-0.1-0.2-0.3-0.2-0.7-0.2
	c-0.3,0-0.4,0.1-0.7,0.2C14.2,22,14.2,22.3,14.2,22.6z M14.2,26.7c0,0.2,0.1,0.4,0.2,0.7c0.2,0.2,0.4,0.2,0.7,0.2s0.4-0.1,0.7-0.2
	c0.2-0.2,0.2-0.4,0.2-0.7c0-0.2-0.1-0.4-0.2-0.7c-0.1-0.2-0.4-0.2-0.7-0.2c-0.2,0-0.4,0.1-0.7,0.2C14.3,26.1,14.2,26.4,14.2,26.7z
	 M15.3,9.2c0.8-0.8,1.7-1.1,2.8-1.1c1.1,0,2,0.4,2.8,1.1c0.8,0.8,1.1,1.7,1.1,2.8c0,0.7-0.2,1.3-0.6,2c-1.1-1.1-2.4-1.6-3.9-1.6
	h-0.3C16.9,11.2,16.2,10.1,15.3,9.2z M17.1,3.4c0,0.2,0.1,0.4,0.2,0.7c0.1,0.2,0.4,0.2,0.7,0.2c0.2,0,0.4-0.1,0.7-0.2
	c0.2-0.2,0.2-0.3,0.2-0.7V1.2c0-0.2-0.1-0.4-0.2-0.7c-0.2-0.2-0.3-0.2-0.7-0.2c-0.3,0-0.4,0-0.6,0.1c-0.1,0.1-0.3,0.4-0.3,0.7
	L17.1,3.4L17.1,3.4z M23.3,6c0,0.2,0.1,0.4,0.2,0.7c0.1,0.2,0.3,0.2,0.7,0.3c0.3,0.1,0.4-0.1,0.7-0.3l1.6-1.6
	c0.2-0.2,0.3-0.4,0.3-0.7S26.6,4,26.4,3.8c-0.2-0.2-0.4-0.2-0.7-0.2c-0.2,0-0.4,0.1-0.7,0.2l-1.6,1.7C23.4,5.4,23.3,5.7,23.3,6z
	 M24.2,19.2c0,0.2,0.1,0.6,0.2,0.7l0.7,0.7c0.2,0.2,0.6,0.2,0.7,0.2c0.2,0,0.4-0.1,0.7-0.3c0.2-0.2,0.2-0.4,0.2-0.7
	s-0.1-0.4-0.3-0.7l-0.7-0.7c-0.2-0.2-0.4-0.2-0.7-0.2c-0.2,0-0.4,0.1-0.7,0.2C24.3,18.6,24.2,18.9,24.2,19.2z M25.9,12
	c0,0.2,0.1,0.4,0.3,0.7c0.2,0.2,0.4,0.3,0.7,0.3h2.2c0.2,0,0.4-0.1,0.7-0.2c0.2-0.1,0.2-0.4,0.2-0.7s-0.1-0.4-0.2-0.7
	c-0.1-0.2-0.4-0.2-0.7-0.2h-2.2c-0.2,0-0.4,0.1-0.7,0.2C26,11.6,25.9,11.8,25.9,12z"/>
</svg>
