<?xml version="1.0" encoding="utf-8"?>
<!-- Generator: Adobe Illustrator 24.3.0, SVG Export Plug-In . SVG Version: 6.00 Build 0)  -->
<svg version="1.1" id="Layer_1" xmlns="http://www.w3.org/2000/svg" xmlns:xlink="http://www.w3.org/1999/xlink" x="0px" y="0px"
	 viewBox="0 0 30 30" style="enable-background:new 0 0 30 30;" xml:space="preserve">
<path d="M4.1,15.5c0,1.3,0.5,2.5,1.4,3.4c0.9,1,2.1,1.5,3.4,1.5c0.1,0,0.2-0.1,0.2-0.2V19c0-0.1-0.1-0.2-0.2-0.2
	c-0.9,0-1.6-0.4-2.2-1c-0.6-0.6-0.9-1.4-0.9-2.2c0-0.9,0.3-1.6,0.8-2.2c0.6-0.6,1.3-1,2.1-1l0.5-0.1c0.1,0,0.2-0.1,0.2-0.2l0.1-0.5
	c0.1-1.1,0.6-2,1.4-2.8s1.8-1.1,2.9-1.1c1.1,0,2,0.4,2.9,1.1c0.8,0.7,1.3,1.6,1.4,2.7l0.1,0.6c0,0.1,0.1,0.2,0.2,0.2h1.6
	c0.9,0,1.7,0.3,2.3,1c0.6,0.6,1,1.4,1,2.3c0,0.9-0.3,1.6-0.9,2.2s-1.3,1-2.2,1c-0.1,0-0.2,0.1-0.2,0.2v1.3c0,0.1,0.1,0.2,0.2,0.2
	c0.9,0,1.7-0.3,2.4-0.7s1.3-1,1.7-1.8s0.6-1.6,0.6-2.4c0-0.9-0.2-1.7-0.6-2.5c0.7-0.7,1.2-1.5,1.5-2.6l0.2-0.7c0,0,0,0,0-0.1
	c0-0.1,0-0.1-0.2-0.2l-0.6-0.2C24.7,9.2,24.3,9,24,8.8s-0.6-0.5-0.8-0.8C23,7.6,22.8,7.3,22.7,7c-0.1-0.3-0.1-0.6-0.1-0.9
	c0-0.3,0-0.6,0.1-0.9l0.1-0.6c0-0.1,0-0.2-0.1-0.2l-0.8-0.2C21.4,4,21,3.9,20.6,3.9c-0.4,0-0.7,0-1.1,0.1c-0.4,0.1-0.8,0.2-1.2,0.4
	s-0.8,0.4-1.2,0.8c-0.4,0.3-0.7,0.8-1,1.2C15.3,6.2,14.5,6,13.8,6c-1.4,0-2.7,0.4-3.8,1.3s-1.8,2-2.1,3.4c-1.1,0.3-2,0.9-2.8,1.8
	C4.4,13.3,4.1,14.4,4.1,15.5z M10.5,19.6c0,0.2,0.1,0.4,0.2,0.6c0.2,0.2,0.4,0.2,0.6,0.2s0.4-0.1,0.6-0.2c0.2-0.2,0.2-0.4,0.2-0.6
	c0-0.2-0.1-0.4-0.2-0.6s-0.4-0.2-0.6-0.2c-0.2,0-0.4,0.1-0.6,0.2S10.5,19.4,10.5,19.6z M10.5,23.3c0,0.2,0.1,0.4,0.2,0.6
	s0.4,0.2,0.6,0.2c0.2,0,0.4-0.1,0.6-0.2c0.2-0.2,0.2-0.3,0.2-0.6c0-0.2-0.1-0.4-0.2-0.6s-0.4-0.2-0.6-0.2c-0.2,0-0.4,0.1-0.6,0.2
	C10.5,22.8,10.5,23,10.5,23.3z M13.7,21.6c0,0.2,0.1,0.4,0.2,0.6c0.2,0.2,0.4,0.2,0.6,0.2c0.2,0,0.4-0.1,0.6-0.2s0.2-0.4,0.2-0.6
	c0-0.2-0.1-0.4-0.2-0.6c-0.2-0.2-0.4-0.3-0.6-0.3c-0.2,0-0.4,0.1-0.6,0.3C13.7,21.1,13.7,21.3,13.7,21.6z M13.7,17.9
	c0,0.2,0.1,0.4,0.2,0.6c0.2,0.2,0.4,0.2,0.6,0.2c0.2,0,0.4-0.1,0.6-0.2c0.2-0.1,0.2-0.3,0.2-0.6c0-0.2-0.1-0.4-0.2-0.6
	c-0.2-0.2-0.4-0.2-0.6-0.2c-0.2,0-0.4,0.1-0.6,0.2C13.7,17.5,13.7,17.7,13.7,17.9z M13.7,25.2c0,0.2,0.1,0.4,0.2,0.6
	c0.2,0.2,0.4,0.2,0.6,0.2c0.2,0,0.4-0.1,0.6-0.2s0.2-0.3,0.2-0.6c0-0.2-0.1-0.4-0.2-0.6c-0.2-0.2-0.4-0.3-0.6-0.3
	c-0.2,0-0.4,0.1-0.6,0.3C13.8,24.8,13.7,25,13.7,25.2z M16.9,19.6c0,0.2,0.1,0.4,0.2,0.6s0.4,0.2,0.6,0.2s0.4-0.1,0.6-0.2
	c0.2-0.2,0.2-0.4,0.2-0.6c0-0.2-0.1-0.4-0.2-0.6s-0.4-0.2-0.6-0.2s-0.4,0.1-0.6,0.2S16.9,19.4,16.9,19.6z M16.9,23.3
	c0,0.2,0.1,0.4,0.2,0.6s0.4,0.2,0.6,0.2s0.4-0.1,0.6-0.2s0.2-0.4,0.2-0.6c0-0.2-0.1-0.4-0.2-0.6c-0.2-0.2-0.4-0.2-0.6-0.2
	s-0.4,0.1-0.6,0.2C17,22.8,16.9,23,16.9,23.3z M17.6,7.4c0.3-0.5,0.8-1,1.3-1.3s1.1-0.5,1.7-0.5c0.1,0,0.3,0,0.3,0V6
	c0,1,0.3,1.9,0.8,2.7s1.2,1.5,2.2,2c-0.2,0.4-0.4,0.7-0.8,1.1c-0.9-0.8-2-1.2-3.2-1.2h-0.3C19.3,9.3,18.6,8.3,17.6,7.4z"/>
</svg>
