<?xml version="1.0" encoding="utf-8"?>
<!-- Generator: Adobe Illustrator 24.3.0, SVG Export Plug-In . SVG Version: 6.00 Build 0)  -->
<svg version="1.1" id="Layer_1" xmlns="http://www.w3.org/2000/svg" xmlns:xlink="http://www.w3.org/1999/xlink" x="0px" y="0px"
	 viewBox="0 0 30 30" style="enable-background:new 0 0 30 30;" xml:space="preserve">
<path d="M0,14c0,1.6,0.4,3,1.4,4.3s2.2,2.2,3.7,2.6l-1,2.4c0,0.1,0,0.3,0.1,0.3h3l-1.4,6.2h0.4l5.6-8.3v-0.1l-0.1-0.1H8.6l3.6-6.6
	c0.1-0.1,0-0.3-0.1-0.3H7.9c-0.1,0-0.3,0-0.3,0.1L6,18.6c-1-0.3-1.9-0.9-2.6-1.7c-0.7-0.9-1-1.9-1-2.9c0-1.1,0.4-2.3,1.1-3.2
	c0.9-0.9,1.9-1.4,3-1.6l0.7-0.1c0.1,0,0.3-0.1,0.3-0.3l0.1-0.7c0.1-1.6,0.9-2.9,2-3.9s2.6-1.6,4.2-1.6s2.9,0.6,4.2,1.6
	c1.1,1,1.9,2.3,2,3.9L20.2,9c0,0.1,0.1,0.3,0.3,0.3h2.3c1.3,0,2.4,0.4,3.3,1.3s1.4,2,1.4,3.3s-0.4,2.3-1.3,3.2
	c-0.9,0.9-1.9,1.4-3.2,1.4c-0.1,0-0.3,0.1-0.3,0.3v2c0,0.1,0.1,0.3,0.3,0.3c1.9,0,3.6-0.7,4.9-2.2c1.3-1.4,2-3,2-5
	c0-1.3-0.3-2.4-1-3.6c-0.6-1.1-1.4-2-2.6-2.6c-1.1-0.6-2.3-1-3.6-1h-0.4c-0.6-1.7-1.6-3.3-3.2-4.6c-1.6-1.3-3.3-1.9-5.3-1.9
	S10,0.8,8.5,2.1S5.9,5,5.5,7C3.9,7.4,2.6,8.1,1.6,9.4S0,12.3,0,14z M11.8,27.9c0,0.6,0.3,0.9,0.9,1.1c0,0,0,0,0.1,0
	c0.1,0,0.1,0,0.1,0c0.3,0,0.4,0,0.7-0.1s0.4-0.4,0.4-0.7l3.2-12.5c0.1-0.3,0-0.7-0.1-0.9c-0.1-0.3-0.4-0.4-0.7-0.6
	c-0.3,0-0.4,0-0.4,0c-0.3,0-0.4,0-0.7,0.1c-0.1,0.1-0.4,0.3-0.4,0.7l-3.3,12.5C11.8,27.6,11.8,27.8,11.8,27.9z M17.7,23.5
	c0,0.1,0,0.4,0.1,0.6c0.1,0.3,0.4,0.6,0.7,0.6c0.1,0,0.3,0,0.4,0c0.1,0,0.3,0,0.4-0.1c0.3-0.1,0.6-0.4,0.6-0.9l2-8.2
	c0-0.1,0-0.3,0-0.4s0-0.4-0.3-0.7c-0.3-0.3-0.4-0.4-0.7-0.4s-0.4,0-0.4,0c-0.3,0-0.4,0-0.7,0.1s-0.3,0.3-0.4,0.7l-1.6,8.5
	c0,0,0,0,0,0.1C17.7,23.5,17.7,23.5,17.7,23.5z"/>
</svg>
